<?xml version="1.0" encoding="UTF-8" standalone="no"?>
<svg
   xmlns:dc="http://purl.org/dc/elements/1.1/"
   xmlns:cc="http://creativecommons.org/ns#"
   xmlns:rdf="http://www.w3.org/1999/02/22-rdf-syntax-ns#"
   xmlns:svg="http://www.w3.org/2000/svg"
   xmlns="http://www.w3.org/2000/svg"
   width="432"
   height="261"
   viewBox="0 0 432 261"
   fill="none"
   version="1.1"
   id="svg97">
  <metadata
     id="metadata103">
    <rdf:RDF>
      <cc:Work
         rdf:about="">
        <dc:format>image/svg+xml</dc:format>
        <dc:type
           rdf:resource="http://purl.org/dc/dcmitype/StillImage" />
        <dc:title></dc:title>
      </cc:Work>
    </rdf:RDF>
  </metadata>
  <defs
     id="defs101" />
  <g
     id="map/template">
    <image id="basemap" width="432" height="261" href="blank.png" x="0" y="0" />
    <path
       id="shade"
       d="M 0,0 H 432 V 261 H 0 Z"
       fill="#000000"
       fill-opacity="0.05" />
    <g
       id="zones">
      <g
         id="zone-area">
        <g
           id="flattened"
           opacity="0.5">
          <mask
             id="path-3-inside-1"
             fill="#ffffff">
            <path
               fill-rule="evenodd"
               clip-rule="evenodd"
               d="m 132.932,168.272 -4.108,-1.386 -1.282,1.795 1.215,4.596 12.33,13.222 11.137,10.975 16.479,8.87 14.539,7.188 v 0 l 23.062,11.388 23.142,8.326 0.016,0.006 0.016,0.007 17.659,7.789 10.319,2.793 h 14.725 l 12.678,-2.107 18.531,-9.002 4.975,-5.054 1.558,-4.051 -0.442,-7.104 -0.9,-6.461 -1.662,-5.481 -2.287,-3.832 -0.076,-0.127 0.006,-0.149 0.313,-7.988 0.008,-0.202 0.146,-0.14 2.793,-2.671 0.936,-2.811 -1.372,-0.244 -0.103,-0.018 -0.088,-0.058 -6.172,-4.136 -0.094,-0.063 -0.058,-0.098 -7.112,-12.062 -0.023,-0.039 -0.015,-0.043 -2.4,-6.56 -5.035,-2.074 -9.701,-0.184 -3.557,1.487 -4.334,8.36 -0.044,0.085 -0.071,0.062 -7.363,6.423 -0.157,0.137 -0.208,-0.016 -7.769,-0.563 -0.078,-0.006 -0.073,-0.029 -4.981,-2.005 -0.072,-0.029 -0.06,-0.05 -4.256,-3.516 -26.298,-9.526 -0.132,-0.048 -0.088,-0.11 -1.573,-1.967 h -2.764 l -5.062,6.976 -0.094,0.129 -0.151,0.051 -8.407,2.834 -0.085,0.029 -0.09,-0.003 -18.409,-0.552 -5.887,0.144 -17.526,1.008 -0.082,0.005 -0.079,-0.022 -6.701,-1.836 -12.653,-0.834 -4.321,0.594 -0.117,0.016 z m 182.168,50.456 -4.66,-2.572 -0.874,-6.271 -0.005,-0.038 -0.011,-0.038 -1.692,-5.576 -0.018,-0.059 -0.031,-0.052 -2.242,-3.758 0.299,-7.638 2.736,-2.617 0.09,-0.086 0.039,-0.118 1.092,-3.275 4.099,-1.945 0.054,-0.025 0.047,-0.038 4.566,-3.697 2.512,-1.315 18.894,-2.704 3.906,2.238 1.864,4.814 v 4.353 l -1.312,6.679 -9.965,10.852 -7.152,5.242 -0.018,0.014 -0.017,0.015 -4.118,3.633 z m -1.66,-34.921 -4.094,1.943 -1.682,-0.299 -5.989,-4.013 -7.031,-11.924 -2.459,-6.725 -0.076,-0.206 -0.204,-0.084 -5.325,-2.193 -0.087,-0.036 -0.094,-0.002 -9.9,-0.188 -0.105,-0.002 -0.098,0.041 -3.822,1.598 -0.167,0.07 -0.084,0.161 -4.373,8.437 -7.134,6.223 -7.484,-0.543 -4.837,-1.947 -4.263,-3.522 -0.067,-0.055 -0.081,-0.03 -26.247,-9.507 -1.544,-1.93 -0.703,-6.762 2.807,-4.233 7.032,-7.39 0.033,-0.035 0.026,-0.04 1.969,-3.075 0.017,-0.026 0.014,-0.028 2.845,-5.952 3.518,-3.541 4.249,-0.543 14.821,3.938 0.085,0.023 0.088,-0.008 5.957,-0.528 0.133,-0.012 0.109,-0.077 1.621,-1.134 1.136,0.873 0.226,0.173 0.264,-0.105 20.017,-7.988 10.496,-2.034 0.163,-0.032 0.112,-0.123 7.151,-7.887 0.057,-0.062 0.033,-0.077 2.818,-6.602 4.864,-4.463 0.024,-0.022 0.021,-0.025 6.865,-8.1725 0.091,-0.1083 0.021,-0.14 0.817,-5.5164 0.03,-0.2023 -0.12,-0.1654 -2.334,-3.2039 -0.78,-6.5865 3.841,-5.4864 7.453,-4.916 7.217,0.7534 5.713,1.5871 2.427,2.5032 4.569,9.1383 3.572,10.0659 4.147,23.3408 -2.687,22.393 -0.001,0.008 -2.49,18.284 -3.202,16.62 -3.519,4.447 -18.952,2.712 -0.085,0.012 -0.076,0.04 -2.632,1.378 -0.044,0.023 -0.038,0.032 z m -98.936,-31.789 -2.498,7.018 -5.077,6.995 -8.17,2.754 -18.334,-0.55 h -0.013 -0.014 l -5.909,0.145 h -0.008 -0.008 l -17.453,1.004 -6.67,-1.828 -0.049,-0.013 -0.051,-0.003 -12.754,-0.841 -0.051,-0.003 -0.05,0.007 -4.255,0.584 -4.347,-1.467 -0.009,-0.003 -0.01,-0.003 -10.6,-3.115 L 101.833,148.345 82.354,121.123 71.5123,100.577 70.7867,83.2033 89.2006,45.1588 135.712,25.8469 l 35.486,-4.8946 0.052,-0.0072 0.049,-0.0178 10.885,-3.9249 12.635,1.2961 0.016,0.0016 0.015,6e-4 41.381,1.7123 19.777,8.6499 14.75,9.5083 11.916,12.3981 v 12.9952 l -7.328,21.2098 -0.013,0.0358 -0.006,0.0372 -5.757,31.3587 -3.387,8.183 -5.648,4.237 -1.806,1.264 -5.736,0.508 -14.831,-3.94 -0.095,-0.025 -0.097,0.012 -4.516,0.576 -0.17,0.022 -0.121,0.122 -3.699,3.723 -0.06,0.06 -0.036,0.077 -2.869,6.001 -1.927,3.008 -7.029,7.387 -0.03,0.032 -0.025,0.037 -2.93,4.419 -0.034,0.051 z m 47.83,-22.46 -0.679,-0.522 5.238,-3.929 0.11,-0.082 0.052,-0.127 3.459,-8.359 0.02,-0.048 0.01,-0.052 5.747,-31.3087 5.886,-8.7487 5.938,-1.6124 7.986,-0.3992 14.022,7.1319 2.575,2.7734 2.273,3.1203 -0.767,5.1741 -6.753,8.0393 -4.92,4.514 -0.079,0.073 -0.043,0.099 -2.827,6.624 -6.983,7.701 -10.379,2.011 -0.046,0.009 -0.044,0.018 z"
               id="path6" />
          </mask>
          <path
             d="m 128.824,166.886 0.32,-0.947 -0.702,-0.237 -0.431,0.603 z m 4.108,1.386 0.319,-0.947 v 0 z m -5.39,0.409 -0.814,-0.581 -0.273,0.383 0.12,0.454 z m 1.215,4.596 -0.966,0.256 0.064,0.243 0.171,0.183 z m 12.33,13.222 -0.732,0.682 0.015,0.015 0.015,0.015 z m 11.137,10.975 -0.702,0.712 0.102,0.101 0.126,0.068 z m 16.479,8.87 -0.474,0.881 0.015,0.008 0.016,0.008 z m 14.539,7.188 0.46,-0.888 -0.008,-0.004 -0.009,-0.005 z m 0,0 -0.46,0.888 0.008,0.004 0.009,0.004 z m 23.062,11.388 -0.443,0.896 0.051,0.025 0.053,0.02 z m 23.142,8.326 0.338,-0.941 v 0 z m 0.016,0.006 0.403,-0.915 -0.032,-0.014 -0.032,-0.012 z m 0.016,0.007 0.404,-0.915 h -0.001 z m 17.659,7.789 -0.404,0.915 0.07,0.031 0.073,0.02 z m 10.319,2.793 -0.261,0.965 0.128,0.035 h 0.133 z m 14.725,0 v 1 h 0.083 l 0.081,-0.014 z m 12.678,-2.107 0.164,0.987 0.143,-0.024 0.13,-0.063 z m 18.531,-9.002 0.437,0.9 0.155,-0.075 0.121,-0.123 z m 4.975,-5.054 0.712,0.702 0.146,-0.149 0.075,-0.194 z m 1.558,-4.051 0.933,0.359 0.078,-0.203 -0.013,-0.218 z m -0.442,-7.104 0.998,-0.062 -0.002,-0.038 -0.005,-0.038 z m -0.9,-6.461 0.991,-0.138 -0.011,-0.077 -0.023,-0.075 z m -1.662,-5.481 0.957,-0.29 -0.036,-0.117 -0.062,-0.105 z m -2.287,-3.832 0.859,-0.512 v 0 z m -0.076,-0.127 -0.999,-0.039 -0.012,0.296 0.152,0.255 z m 0.006,-0.149 -1,-0.039 v 0 z m 0.313,-7.988 0.999,0.039 v 0 z m 0.008,-0.202 -0.691,-0.723 -0.293,0.279 -0.015,0.404 z m 0.146,-0.14 -0.691,-0.723 v 0 z m 2.793,-2.671 0.691,0.722 0.179,-0.171 0.078,-0.235 z m 0.936,-2.811 0.949,0.316 0.366,-1.098 -1.14,-0.203 z m -1.372,-0.244 0.175,-0.984 v 0 z m -0.103,-0.018 -0.557,0.831 0.175,0.117 0.207,0.037 z m -0.088,-0.058 0.557,-0.831 v 0 z m -6.172,-4.136 -0.556,0.831 z m -0.094,-0.063 -0.862,0.508 0.116,0.196 0.189,0.127 z m -0.058,-0.098 -0.861,0.508 v 0 z m -7.112,-12.062 -0.861,0.508 v 0 z m -0.023,-0.039 -0.939,0.343 0.031,0.086 0.047,0.079 z m -0.015,-0.043 0.939,-0.343 v -10e-4 z m -2.4,-6.56 0.939,-0.344 -0.151,-0.413 -0.407,-0.168 z m -5.035,-2.074 0.38,-0.924 -0.173,-0.072 -0.188,-0.004 z m -9.701,-0.184 0.019,-1 -0.21,-0.004 -0.195,0.081 z m -3.557,1.487 -0.386,-0.922 -0.335,0.14 -0.167,0.322 z m -4.334,8.36 -0.888,-0.46 z m -0.044,0.085 0.657,0.753 0.143,-0.124 0.088,-0.169 z m -0.071,0.062 -0.658,-0.753 v 0 z m -7.363,6.423 0.658,0.753 z m -0.157,0.137 -0.072,0.997 0.415,0.03 0.315,-0.274 z m -0.208,-0.016 0.073,-0.997 v 0 z m -7.769,-0.563 -0.073,0.997 v 0 z m -0.078,-0.006 -0.373,0.928 0.145,0.058 0.155,0.011 z m -0.073,-0.029 -0.373,0.927 v 0 z m -4.981,-2.005 -0.373,0.927 v 0 z m -0.072,-0.029 -0.637,0.771 0.12,0.098 0.144,0.058 z m -0.06,-0.05 0.637,-0.771 v 0 z m -4.256,-3.516 0.637,-0.771 -0.134,-0.11 -0.163,-0.059 z m -26.298,-9.526 -0.34,0.94 v 0 z m -0.132,-0.048 -0.781,0.625 0.176,0.22 0.264,0.095 z m -0.088,-0.11 -0.781,0.625 v 0 z m -1.573,-1.967 0.781,-0.624 -0.3,-0.376 h -0.481 z m -2.764,0 v -1 h -0.509 l -0.3,0.413 z m -5.062,6.976 -0.809,-0.587 v 0 z m -0.094,0.129 0.32,0.948 0.302,-0.102 0.188,-0.258 z m -0.151,0.051 0.319,0.948 h 0.001 z m -8.407,2.834 -0.319,-0.947 v 0 z m -0.085,0.029 -0.03,1 0.179,0.005 0.171,-0.057 z m -0.09,-0.003 0.03,-0.999 v 0 z m -18.409,-0.552 0.03,-0.999 -0.027,-10e-4 -0.028,10e-4 z m -5.887,0.144 -0.024,-1 -0.017,0.001 -0.016,0.001 z m -17.526,1.008 0.057,0.999 v 0 z m -0.082,0.005 -0.264,0.965 0.158,0.043 0.163,-0.01 z m -0.079,-0.022 -0.264,0.965 v 0 z m -6.701,-1.836 0.264,-0.964 -0.097,-0.027 -0.101,-0.007 z m -12.653,-0.834 0.066,-0.998 -0.102,-0.006 -0.1,0.014 z m -4.321,0.594 -0.137,-0.991 v 0 z m -0.117,0.016 -0.32,0.947 0.223,0.076 0.233,-0.032 z m 177.397,47.846 -0.991,0.138 0.069,0.495 0.439,0.242 z m 4.66,2.572 -0.483,0.876 0.457,0.252 0.468,-0.231 z m -5.534,-8.843 0.991,-0.138 v 0 z m -0.005,-0.038 0.991,-0.138 -0.011,-0.078 -0.023,-0.074 z m -0.011,-0.038 0.957,-0.29 v 0 z m -1.692,-5.576 0.957,-0.291 v 0 z m -0.018,-0.059 0.957,-0.29 -0.035,-0.117 -0.063,-0.105 z m -0.031,-0.052 -0.859,0.512 v 0 z m -2.242,-3.758 -1,-0.039 -0.011,0.297 0.152,0.255 z m 0.299,-7.638 -0.691,-0.723 -0.292,0.28 -0.016,0.404 z m 2.736,-2.617 0.692,0.722 v 0 z m 0.09,-0.086 0.691,0.723 0.179,-0.172 0.079,-0.235 z m 1.131,-3.393 -0.429,-0.903 -0.385,0.182 -0.135,0.405 z m 4.099,-1.945 -0.428,-0.903 v 0 z m 0.054,-0.025 0.429,0.903 0.108,-0.051 0.092,-0.075 z m 0.047,-0.038 0.629,0.777 v 0 z m 4.566,-3.697 -0.464,-0.886 -0.088,0.046 -0.077,0.063 z m 2.512,-1.315 -0.142,-0.99 -0.17,0.024 -0.152,0.08 z m 18.894,-2.704 0.497,-0.868 -0.298,-0.17 -0.341,0.048 z m 3.906,2.238 0.933,-0.361 -0.128,-0.331 -0.308,-0.176 z m 1.864,4.814 h 1 v -0.187 l -0.068,-0.174 z m 0,4.353 0.981,0.193 0.019,-0.096 v -0.097 z m -1.312,6.679 0.736,0.676 0.191,-0.207 0.054,-0.276 z m -9.965,10.852 0.591,0.806 0.079,-0.058 0.067,-0.072 z m -7.152,5.242 -0.591,-0.806 v 0 z m -0.018,0.014 -0.592,-0.807 -0.036,0.027 -0.034,0.03 z m -0.017,0.015 -0.662,-0.75 v 0 z m -4.118,3.633 0.442,0.897 0.119,-0.059 0.1,-0.088 z m -13.837,-28.996 -0.175,0.984 0.315,0.056 0.289,-0.137 z m 4.094,-1.943 0.428,0.904 0.108,-0.051 0.093,-0.075 z m -5.776,1.644 -0.556,0.831 0.175,0.117 0.207,0.037 z m -5.989,-4.013 -0.862,0.508 0.116,0.196 0.189,0.127 z m -7.031,-11.924 -0.939,0.343 0.031,0.086 0.047,0.078 z m -2.459,-6.725 -0.939,0.344 v 0 z m -0.076,-0.206 0.939,-0.344 -0.151,-0.413 -0.407,-0.168 z m -0.204,-0.084 0.381,-0.925 v 0 z m -5.325,-2.193 0.38,-0.925 z m -0.087,-0.036 0.38,-0.925 -0.173,-0.071 -0.188,-0.004 z m -0.094,-0.002 0.019,-1 v 0 z m -9.9,-0.188 -0.019,1 v 0 z m -0.105,-0.002 0.019,-1 -0.211,-0.004 -0.194,0.082 z m -0.098,0.041 -0.385,-0.923 v 0 z m -3.822,1.598 0.386,0.922 v 0 z m -0.167,0.07 -0.386,-0.923 -0.335,0.14 -0.167,0.322 z m -0.084,0.161 -0.888,-0.46 v 0 z m -4.373,8.437 0.657,0.754 0.143,-0.125 0.087,-0.169 z m -7.134,6.223 -0.073,0.997 0.416,0.031 0.314,-0.274 z m -7.484,-0.543 -0.373,0.927 0.145,0.059 0.156,0.011 z m -4.837,-1.947 -0.637,0.771 0.12,0.099 0.144,0.058 z m -4.263,-3.522 -0.637,0.771 v 0 z m -0.067,-0.055 0.637,-0.771 -0.134,-0.111 -0.162,-0.059 z m -0.081,-0.03 -0.341,0.94 v 0 z m -26.247,-9.507 -0.781,0.624 0.176,0.22 0.264,0.096 z m -1.544,-1.93 -0.994,0.103 0.03,0.292 0.184,0.229 z m -0.703,-6.762 -0.833,-0.552 -0.198,0.299 0.037,0.357 z m 2.807,-4.233 -0.724,-0.689 -0.06,0.063 -0.049,0.073 z m 7.032,-7.39 -0.724,-0.69 v 0 z m 0.033,-0.035 0.724,0.689 0.066,-0.069 0.052,-0.081 z m 0.026,-0.04 -0.842,-0.54 v 0 z m 1.969,-3.075 0.842,0.54 10e-4,-0.001 z m 0.017,-0.026 0.842,0.539 0.034,-0.052 0.026,-0.056 z m 0.014,-0.028 0.902,0.431 v 0 z m 2.845,-5.952 -0.709,-0.705 -0.12,0.12 -0.073,0.153 z m 3.518,-3.541 -0.126,-0.992 -0.341,0.043 -0.242,0.244 z m 4.249,-0.543 0.257,-0.966 -0.19,-0.05 -0.194,0.024 z m 14.821,3.938 0.257,-0.966 v 0 z m 0.085,0.023 -0.256,0.966 0.169,0.046 0.176,-0.016 z m 0.088,-0.008 0.088,0.996 v 0 z m 5.957,-0.528 0.088,0.996 v 0 z m 0.133,-0.012 0.088,0.996 0.266,-0.024 0.219,-0.153 z m 0.109,-0.077 -0.573,-0.819 v 0 z m 1.621,-1.134 0.61,-0.793 -0.582,-0.447 -0.601,0.42 z m 1.136,0.873 -0.609,0.793 v 0 z m 0.226,0.173 -0.609,0.793 0.451,0.347 0.529,-0.211 z m 0.264,-0.105 -0.37,-0.929 z m 20.017,-7.988 -0.19,-0.982 -0.093,0.018 -0.088,0.035 z m 10.496,-2.034 0.19,0.981 z m 0.163,-0.032 0.191,0.982 0.327,-0.064 0.223,-0.246 z m 0.112,-0.123 0.741,0.671 v 0 z m 7.151,-7.887 0.741,0.672 v 0 z m 0.057,-0.062 0.74,0.672 0.113,-0.125 0.066,-0.154 z m 0.033,-0.077 0.919,0.392 v 0 z m 2.818,-6.602 -0.676,-0.737 -0.159,0.146 -0.085,0.198 z m 4.864,-4.463 -0.676,-0.737 v 0 z m 0.024,-0.022 0.676,0.737 0.048,-0.044 0.042,-0.05 z m 0.021,-0.025 -0.765,-0.643 v 0 z m 6.865,-8.1725 0.766,0.6432 v 0 z m 0.091,-0.1083 0.766,0.6431 0.182,-0.2167 0.041,-0.2799 z m 0.021,-0.14 -0.989,-0.1466 z m 0.817,-5.5164 -0.989,-0.1466 v 10e-5 z m 0.03,-0.2023 0.989,0.1466 0.06,-0.4047 -0.241,-0.3307 z m -0.12,-0.1654 -0.809,0.5888 v 0 z m -2.334,-3.2039 -0.993,0.1175 0.03,0.2598 0.154,0.2115 z m -0.78,-6.5865 -0.819,-0.5734 -0.219,0.3123 0.045,0.3787 z m 3.841,-5.4864 -0.551,-0.8348 -0.159,0.105 -0.109,0.1563 z m 7.453,-4.916 0.104,-0.9946 -0.356,-0.0372 -0.299,0.197 z m 7.217,0.7534 0.268,-0.9635 -0.081,-0.0224 -0.083,-0.0087 z m 5.713,1.5871 0.718,-0.696 -0.188,-0.1949 -0.262,-0.0727 z m 2.427,2.5032 0.894,-0.4472 -0.069,-0.138 -0.107,-0.1107 z m 4.569,9.1383 0.942,-0.3344 -0.02,-0.0579 -0.028,-0.0549 z m 3.572,10.0659 0.984,-0.1749 -0.014,-0.0815 -0.028,-0.078 z m 4.147,23.3408 0.993,0.119 0.018,-0.147 -0.026,-0.147 z m -2.687,22.393 0.992,0.126 0.001,-0.007 z m -0.001,0.008 0.991,0.134 10e-4,-0.008 z m -2.49,18.284 0.982,0.189 0.006,-0.027 0.003,-0.027 z m -3.202,16.62 0.784,0.621 0.152,-0.192 0.046,-0.24 z m -3.519,4.447 0.142,0.99 0.395,-0.056 0.247,-0.313 z m -18.952,2.712 -0.142,-0.99 v 0 z m -0.085,0.012 -0.142,-0.99 -0.17,0.024 -0.152,0.08 z m -0.076,0.04 -0.464,-0.886 v 0 z m -2.632,1.378 0.464,0.886 v 0 z m -0.044,0.023 -0.464,-0.885 -0.088,0.046 -0.077,0.062 z m -0.038,0.032 -0.63,-0.778 v 0 z m -105.993,-21.081 0.809,0.587 0.084,-0.116 0.049,-0.136 z m 2.498,-7.018 -0.943,-0.335 v 0 z m -7.575,14.013 0.32,0.947 0.302,-0.102 0.188,-0.258 z m -8.17,2.754 -0.03,1 0.179,0.005 0.17,-0.057 z m -18.334,-0.55 -0.03,1 v 0 z m -0.013,0 0.03,-0.999 -0.028,-10e-4 h -0.027 z m -0.014,0 0.024,1 h 0.001 z m -5.909,0.145 0.024,0.999 h 0.001 z m -0.008,0 -0.024,-1 h -0.017 l -0.016,0.001 z m -0.008,0 -0.057,-0.998 h -0.001 z m -17.453,1.004 -0.264,0.965 0.158,0.043 0.164,-0.009 z m -6.67,-1.828 0.264,-0.964 v 0 z m -0.049,-0.013 0.264,-0.964 -0.097,-0.027 -0.101,-0.007 z m -0.051,-0.003 -0.065,0.998 v 0 z m -12.754,-0.841 -0.066,0.998 v 0 z m -0.051,-0.003 0.066,-0.998 -0.101,-0.007 -0.101,0.014 z m -0.05,0.007 0.136,0.99 v 0 z m -4.255,0.584 -0.32,0.948 0.223,0.075 0.233,-0.032 z m -4.347,-1.467 0.32,-0.947 h -0.001 z m -0.009,-0.003 0.319,-0.948 -0.019,-0.006 -0.018,-0.005 z m -0.01,-0.003 0.282,-0.959 v 0 z m -10.6,-3.115 -0.66,0.751 0.166,0.146 0.212,0.062 z m -16.341,-14.354 -0.813,0.582 0.067,0.093 0.086,0.076 z m -19.479,-27.222 -0.8844,0.467 0.0317,0.06 0.0395,0.055 z m -10.8417,-20.546 -0.9991,0.041 0.0094,0.226 0.1053,0.199 z m -0.7256,-17.3737 -0.9001,-0.4357 -0.1095,0.2263 0.0105,0.2511 z m 18.4139,-38.0445 -0.3835,-0.9235 -0.351,0.1457 -0.1656,0.3422 z m 46.5114,-19.3119 -0.137,-0.9906 -0.128,0.0176 -0.119,0.0495 z m 35.486,-4.8946 0.137,0.9906 v 0 z m 0.052,-0.0072 0.137,0.9906 0.103,-0.0143 0.099,-0.0356 z m 0.049,-0.0178 -0.339,-0.9407 v 0 z m 10.885,-3.9249 0.102,-0.9947 -0.227,-0.0233 -0.214,0.0773 z m 12.635,1.2961 0.103,-0.9948 v 0 z m 0.016,0.0016 -0.102,0.9947 0.03,0.0031 0.03,0.0013 z m 0.015,6e-4 0.041,-0.9992 v 0 z m 41.381,1.7123 0.401,-0.9162 -0.172,-0.0752 -0.188,-0.0078 z m 19.777,8.6499 0.542,-0.8405 -0.067,-0.0435 -0.074,-0.0322 z m 14.75,9.5083 0.721,-0.693 -0.081,-0.0842 -0.098,-0.0633 z m 11.916,12.3981 h 1 v -0.4026 l -0.279,-0.2903 z m 0,12.9952 0.945,0.3265 0.055,-0.1587 v -0.1678 z m -7.328,21.2098 -0.945,-0.3265 z m -0.013,0.0358 -0.945,-0.3266 -0.025,0.0717 -0.013,0.0746 z m -0.006,0.0372 0.983,0.1806 v -3e-4 z m -5.757,31.3587 0.924,0.382 0.04,-0.097 0.019,-0.104 z m -3.387,8.183 0.6,0.8 0.22,-0.164 0.104,-0.253 z m -5.648,4.237 0.573,0.819 0.013,-0.009 0.014,-0.01 z m -1.806,1.264 0.089,0.996 0.266,-0.024 0.219,-0.153 z m -5.736,0.508 -0.257,0.967 0.17,0.045 0.175,-0.016 z m -14.831,-3.94 0.257,-0.967 v 0 z m -0.095,-0.025 0.257,-0.967 -0.189,-0.05 -0.194,0.025 z m -0.097,0.012 0.127,0.992 v 0 z m -4.516,0.576 0.127,0.992 z m -0.17,0.022 -0.126,-0.992 -0.341,0.044 -0.242,0.243 z m -0.121,0.122 -0.709,-0.705 v 0 z m -3.699,3.723 0.709,0.705 v 0 z m -0.06,0.06 -0.709,-0.705 -0.12,0.121 -0.073,0.153 z m -0.036,0.077 0.902,0.431 v 0 z m -2.869,6.001 0.842,0.539 0.033,-0.052 0.027,-0.056 z m -1.927,3.008 0.724,0.689 0.066,-0.069 0.052,-0.081 z m -7.029,7.387 -0.725,-0.689 v 0 z m -0.03,0.032 -0.725,-0.689 -0.06,0.063 -0.049,0.073 z m -0.025,0.037 -0.833,-0.553 v 0 z m -2.93,4.419 0.833,0.553 v 0 z m -0.034,0.051 -0.833,-0.552 -0.068,0.102 -0.041,0.115 z m 47.131,-22.924 -0.6,-0.8 -1.054,0.79 1.045,0.802 z m 0.679,0.522 -0.609,0.792 0.451,0.347 0.529,-0.211 z m 4.669,-4.533 0.6,0.8 0.219,-0.165 0.105,-0.253 z m 0.052,-0.127 -0.924,-0.382 v 0 z m 3.459,-8.359 0.924,0.383 v 0 z m 0.02,-0.048 0.924,0.382 0.04,-0.098 0.02,-0.104 z m 0.01,-0.052 0.983,0.18 v 0 z m 5.747,-31.3087 -0.829,-0.5582 -0.117,0.1728 -0.037,0.2048 z m 5.886,-8.7487 -0.262,-0.965 -0.36,0.0976 -0.208,0.3092 z m 5.938,-1.6124 -0.05,-0.9987 -0.108,0.0054 -0.104,0.0283 z m 7.986,-0.3992 0.453,-0.8914 -0.237,-0.1207 -0.266,0.0133 z m 14.022,7.1319 0.732,-0.6805 -0.121,-0.1302 -0.158,-0.0806 z m 2.575,2.7734 0.808,-0.5888 -0.035,-0.0481 -0.04,-0.0436 z m 2.273,3.1203 0.989,0.1465 0.06,-0.4046 -0.241,-0.3307 z m -0.767,5.1741 0.766,0.6432 0.182,-0.2167 0.042,-0.28 z m -6.753,8.0393 0.676,0.737 0.048,-0.044 0.042,-0.05 z m -4.92,4.514 0.676,0.737 v -0.001 z m -0.079,0.073 -0.676,-0.737 -0.159,0.145 -0.085,0.199 z m -0.043,0.099 -0.919,-0.393 v 0 z m -2.827,6.624 0.741,0.672 0.113,-0.125 0.066,-0.155 z m -6.983,7.701 0.191,0.981 0.326,-0.063 0.224,-0.247 z m -10.379,2.011 0.19,0.982 h 10e-4 z m -0.046,0.009 -0.19,-0.982 -0.093,0.018 -0.088,0.035 z m -0.044,0.018 0.371,0.928 v 0 z m -153.625,46.176 4.107,1.386 0.639,-1.895 -4.107,-1.386 z m -0.149,1.429 1.282,-1.795 -1.627,-1.163 -1.283,1.795 z m 1.368,3.759 -1.215,-4.596 -1.934,0.511 1.216,4.596 z m 12.094,12.795 -12.329,-13.222 -1.463,1.364 12.329,13.222 z m 11.108,10.945 -11.137,-10.975 -1.404,1.424 11.137,10.975 z m 16.251,8.702 -16.479,-8.871 -0.948,1.762 16.479,8.87 z m 14.508,7.171 -14.539,-7.187 -0.886,1.793 14.539,7.187 z m 0.017,0.009 v 0 l -0.92,1.775 v 10e-4 z m 23.044,11.379 -23.061,-11.388 -0.886,1.793 23.062,11.388 z m 23.038,8.282 -23.142,-8.326 -0.677,1.882 23.142,8.326 z m 0.017,0.006 -0.017,-0.006 -0.677,1.882 0.017,0.006 z m 0.08,0.033 -0.016,-0.007 -0.806,1.83 0.016,0.007 z m 17.66,7.789 -17.659,-7.789 -0.807,1.83 17.658,7.789 z m 10.176,2.742 -10.319,-2.792 -0.522,1.931 10.319,2.792 z m 14.464,-0.034 h -14.725 v 2 h 14.725 z m 12.514,-2.093 -12.678,2.106 0.328,1.973 12.678,-2.106 z m 18.258,-8.915 -18.531,9.002 0.874,1.799 18.531,-9.002 z m 4.699,-4.856 -4.974,5.054 1.425,1.403 4.974,-5.054 z m 1.337,-3.708 -1.558,4.05 1.867,0.718 1.558,-4.051 z m -0.506,-6.684 0.442,7.105 1.996,-0.125 -0.442,-7.104 z m -0.892,-6.385 0.9,6.461 1.981,-0.276 -0.9,-6.461 z m -1.629,-5.328 1.663,5.48 1.913,-0.58 -1.662,-5.481 z m -2.189,-3.61 2.287,3.832 1.718,-1.025 -2.287,-3.832 z m -0.076,-0.128 0.076,0.128 1.718,-1.025 -0.077,-0.128 z m -0.135,-0.7 -0.005,0.149 1.998,0.078 0.006,-0.148 z m 0.314,-7.989 -0.314,7.989 1.999,0.079 0.313,-7.989 z m 0.008,-0.202 -0.008,0.202 1.998,0.079 0.008,-0.202 z m 0.454,-0.823 -0.146,0.14 1.382,1.445 0.146,-0.139 z m 2.792,-2.671 -2.792,2.671 1.382,1.446 2.793,-2.672 z m 0.68,-2.404 -0.937,2.81 1.897,0.633 0.937,-2.811 z m -0.599,1.057 1.373,0.244 0.349,-1.97 -1.372,-0.243 z m -0.103,-0.018 0.104,0.018 0.349,-1.969 -0.104,-0.019 z m -0.47,-0.213 0.088,0.059 1.113,-1.662 -0.087,-0.058 z m -6.171,-4.135 6.172,4.135 1.113,-1.661 -6.172,-4.136 z m -0.095,-0.063 0.095,0.063 1.113,-1.662 -0.095,-0.063 z m -0.362,-0.421 0.057,0.098 1.723,-1.016 -0.058,-0.098 z m -7.112,-12.062 7.112,12.062 1.722,-1.016 -7.111,-12.062 z m -0.023,-0.039 0.023,0.039 1.723,-1.016 -0.023,-0.039 z m -0.094,-0.208 0.016,0.043 1.878,-0.686 -0.015,-0.043 z m -2.399,-6.56 2.399,6.56 1.879,-0.687 -2.4,-6.56 z m -4.477,-1.492 5.035,2.073 0.762,-1.849 -5.036,-2.073 z m -9.339,-0.109 9.701,0.184 0.038,-2 -9.701,-0.184 z m -3.153,1.41 3.558,-1.487 -0.772,-1.846 -3.557,1.488 z m -3.831,7.898 4.333,-8.361 -1.775,-0.92 -4.334,8.36 z m -0.044,0.084 0.044,-0.084 -1.776,-0.921 -0.044,0.085 z m -0.302,0.356 0.071,-0.063 -1.314,-1.507 -0.072,0.063 z m -7.362,6.422 7.362,-6.422 -1.315,-1.507 -7.362,6.422 z m -0.157,0.137 0.157,-0.137 -1.315,-1.507 -0.157,0.137 z m -0.938,0.229 0.208,0.015 0.145,-1.995 -0.208,-0.015 z m -7.77,-0.564 7.77,0.564 0.145,-1.995 -7.77,-0.564 z m -0.078,-0.006 0.078,0.006 0.145,-1.995 -0.078,-0.006 z m -0.373,-0.099 0.073,0.03 0.746,-1.856 -0.072,-0.029 z m -4.981,-2.005 4.981,2.005 0.747,-1.855 -4.982,-2.005 z m -0.072,-0.029 0.072,0.029 0.746,-1.855 -0.072,-0.029 z m -0.324,-0.206 0.06,0.05 1.274,-1.542 -0.06,-0.05 z m -4.256,-3.516 4.256,3.516 1.274,-1.542 -4.256,-3.516 z m -26.001,-9.357 26.297,9.526 0.681,-1.88 -26.297,-9.526 z m -0.133,-0.048 0.133,0.048 0.681,-1.88 -0.133,-0.048 z m -0.528,-0.425 0.088,0.11 1.562,-1.249 -0.088,-0.11 z m -1.573,-1.967 1.573,1.967 1.562,-1.249 -1.573,-1.967 z m -1.983,0.375 h 2.764 v -2 h -2.764 z m -4.253,6.563 5.063,-6.975 -1.619,-1.175 -5.062,6.976 z m -0.093,0.13 0.093,-0.13 -1.618,-1.174 -0.094,0.129 z m -0.641,0.411 0.151,-0.051 -0.639,-1.895 -0.151,0.051 z m -8.407,2.834 8.406,-2.834 -0.638,-1.895 -8.407,2.834 z m -0.085,0.029 0.085,-0.029 -0.639,-1.895 -0.085,0.029 z m -0.44,0.049 0.09,0.003 0.06,-1.999 -0.09,-0.003 z m -18.409,-0.552 18.409,0.552 0.06,-1.999 -18.409,-0.552 z m -5.833,0.144 5.887,-0.144 -0.049,-1.999 -5.886,0.143 z m -17.493,1.007 17.526,-1.009 -0.114,-1.996 -17.527,1.008 z m -0.082,0.004 0.082,-0.004 -0.115,-1.997 -0.081,0.005 z m -0.4,-0.055 0.079,0.022 0.528,-1.929 -0.079,-0.022 z m -6.701,-1.836 6.701,1.836 0.528,-1.929 -6.701,-1.836 z m -12.455,-0.801 12.653,0.834 0.132,-1.996 -12.653,-0.834 z m -4.119,0.587 4.321,-0.594 -0.272,-1.981 -4.322,0.593 z m -0.117,0.016 0.117,-0.016 -0.273,-1.982 -0.116,0.016 z m -0.567,-0.081 0.111,0.037 0.64,-1.895 -0.112,-0.037 z m 177.345,47.811 4.66,2.573 0.966,-1.751 -4.66,-2.573 z m -1.381,-7.008 0.873,6.271 1.981,-0.276 -0.873,-6.271 z m -0.005,-0.038 0.005,0.038 1.981,-0.276 -0.005,-0.038 z m 0.022,0.114 0.011,0.038 1.914,-0.58 -0.011,-0.038 z m -1.692,-5.576 1.692,5.577 1.914,-0.581 -1.692,-5.577 z m -0.018,-0.058 0.018,0.058 1.914,-0.581 -0.018,-0.058 z m 0.067,0.169 0.032,0.053 1.717,-1.025 -0.031,-0.053 z m -2.242,-3.757 2.242,3.757 1.718,-1.025 -2.243,-3.757 z m 0.159,-8.19 -0.3,7.638 1.999,0.079 0.299,-7.639 z m 3.044,-3.301 -2.736,2.617 1.382,1.445 2.737,-2.617 z m 0.09,-0.086 -0.09,0.086 1.383,1.445 0.089,-0.085 z m -0.219,0.289 -0.039,0.118 1.898,0.632 0.039,-0.117 z m 1.092,-3.275 -1.092,3.275 1.898,0.633 1.091,-3.276 z m 4.62,-2.532 -4.1,1.945 0.857,1.807 4.1,-1.945 z m 0.054,-0.026 -0.054,0.026 0.857,1.807 0.054,-0.026 z m -0.155,0.089 -0.046,0.037 1.258,1.555 0.047,-0.038 z m 4.567,-3.697 -4.567,3.697 1.259,1.554 4.566,-3.697 z m 2.677,-1.424 -2.512,1.315 0.928,1.772 2.512,-1.316 z m 19.216,-2.808 -18.894,2.704 0.283,1.98 18.895,-2.704 z m 4.545,2.36 -3.906,-2.238 -0.994,1.736 3.906,2.237 z m 2.299,5.321 -1.863,-4.814 -1.866,0.722 1.864,4.814 z m 0.068,4.714 v -4.353 h -2 v 4.353 z m -1.331,6.872 1.312,-6.679 -1.963,-0.386 -1.312,6.679 z m -10.209,11.335 9.964,-10.852 -1.473,-1.352 -9.964,10.852 z m -7.298,5.373 7.152,-5.243 -1.182,-1.613 -7.152,5.243 z m -0.018,0.013 0.018,-0.013 -1.182,-1.613 -0.019,0.013 z m 0.053,-0.042 0.017,-0.015 -1.323,-1.499 -0.017,0.015 z m -4.118,3.634 4.118,-3.634 -1.323,-1.499 -4.118,3.633 z m -8.302,4.129 8.083,-3.982 -0.884,-1.794 -8.083,3.982 z m -5.767,-32.972 4.093,-1.942 -0.857,-1.807 -4.094,1.942 z m -2.285,-0.217 1.681,0.298 0.35,-1.969 -1.682,-0.298 z m -6.372,-4.167 5.99,4.013 1.113,-1.662 -5.99,-4.013 z m -7.335,-12.248 7.03,11.925 1.723,-1.016 -7.031,-11.924 z m -2.537,-6.888 2.459,6.724 1.878,-0.687 -2.459,-6.724 z m -0.076,-0.207 0.076,0.207 1.878,-0.687 -0.076,-0.207 z m 0.355,0.497 0.203,0.084 0.762,-1.849 -0.204,-0.084 z m -5.326,-2.193 5.326,2.193 0.761,-1.849 -5.326,-2.193 z m -0.087,-0.035 0.087,0.035 0.761,-1.849 -0.087,-0.036 z m 0.268,0.073 0.094,0.002 0.038,-2 -0.094,-0.002 z m -9.9,-0.188 9.9,0.188 0.038,-2 -9.9,-0.188 z m -0.105,-0.002 0.105,0.002 0.038,-2 -0.105,-0.002 z m 0.307,-0.037 0.097,-0.04 -0.771,-1.845 -0.097,0.04 z m -3.822,1.598 3.822,-1.598 -0.771,-1.845 -3.822,1.598 z m -0.167,0.07 0.167,-0.07 -0.771,-1.845 -0.168,0.07 z m 0.418,-0.301 0.084,-0.161 -1.776,-0.921 -0.084,0.162 z m -4.374,8.437 4.374,-8.437 -1.776,-0.92 -4.373,8.437 z m -7.364,6.517 7.134,-6.223 -1.315,-1.508 -7.133,6.223 z m -8.213,-0.3 7.483,0.543 0.145,-1.994 -7.483,-0.544 z m -5.138,-2.016 4.837,1.946 0.747,-1.855 -4.837,-1.947 z m -4.527,-3.679 4.263,3.522 1.274,-1.542 -4.263,-3.522 z m -0.067,-0.055 0.067,0.055 1.274,-1.542 -0.067,-0.055 z m 0.215,0.139 0.082,0.03 0.681,-1.881 -0.082,-0.029 z m -26.247,-9.507 26.247,9.507 0.681,-1.88 -26.246,-9.507 z m -1.983,-2.246 1.543,1.93 1.562,-1.249 -1.544,-1.93 z m -0.917,-7.282 0.703,6.761 1.989,-0.207 -0.703,-6.761 z m 2.968,-4.89 -2.807,4.234 1.667,1.105 2.807,-4.233 z m 7.141,-7.527 -7.032,7.391 1.449,1.378 7.032,-7.39 z m 0.033,-0.034 -0.033,0.034 1.448,1.379 0.033,-0.035 z m -0.092,0.109 -0.026,0.041 1.684,1.078 0.026,-0.04 z m 1.969,-3.074 -1.969,3.074 1.684,1.079 1.969,-3.074 z m 0.017,-0.026 -0.017,0.026 1.685,1.078 0.016,-0.026 z m -0.047,0.08 -0.013,0.028 1.804,0.862 0.014,-0.028 z m 2.846,-5.953 -2.846,5.953 1.805,0.862 2.845,-5.952 z m 3.711,-3.814 -3.518,3.541 1.419,1.41 3.518,-3.542 z m 4.831,-0.83 -4.248,0.543 0.253,1.984 4.248,-0.543 z m 15.205,3.964 -14.821,-3.938 -0.514,1.933 14.822,3.938 z m 0.085,0.023 -0.085,-0.023 -0.513,1.933 0.085,0.022 z m -0.257,-0.038 -0.088,0.008 0.177,1.992 0.087,-0.008 z m 5.956,-0.528 -5.956,0.528 0.176,1.992 5.957,-0.528 z m 0.134,-0.012 -0.134,0.012 0.177,1.992 0.133,-0.012 z m -0.376,0.1 -0.11,0.077 1.147,1.638 0.11,-0.076 z m 1.621,-1.135 -1.621,1.135 1.147,1.639 1.621,-1.135 z m 2.319,0.9 -1.136,-0.873 -1.219,1.586 1.136,0.873 z m 0.225,0.174 -0.225,-0.174 -1.219,1.586 0.226,0.173 z m -0.715,-0.242 -0.265,0.106 0.742,1.857 0.264,-0.105 z m 20.016,-7.988 -20.016,7.988 0.741,1.858 20.017,-7.988 z m 10.677,-2.087 -10.496,2.034 0.38,1.964 10.496,-2.035 z m 0.163,-0.032 -0.163,0.032 0.38,1.963 0.164,-0.031 z m -0.439,0.187 -0.111,0.123 1.481,1.344 0.112,-0.124 z m 7.151,-7.886 -7.151,7.886 1.482,1.343 7.151,-7.886 z m 0.057,-0.063 -0.057,0.063 1.482,1.343 0.056,-0.062 z m -0.146,0.202 -0.033,0.077 1.839,0.786 0.033,-0.078 z m 2.818,-6.602 -2.818,6.602 1.839,0.785 2.818,-6.602 z m 5.108,-4.807 -4.864,4.463 1.352,1.473 4.864,-4.462 z m 0.024,-0.022 -0.024,0.022 1.352,1.474 0.024,-0.022 z m -0.068,0.069 -0.021,0.025 1.531,1.286 0.021,-0.025 z m 6.864,-8.1727 -6.864,8.1727 1.531,1.286 6.865,-8.1723 z m 0.091,-0.1083 -0.091,0.1083 1.532,1.2864 0.091,-0.1084 z m -0.202,0.3566 -0.021,0.14 1.978,0.2931 0.021,-0.14 z m 0.817,-5.5163 -0.817,5.5163 1.978,0.2931 0.817,-5.5163 z m 0.03,-0.2024 -0.03,0.2023 1.978,0.2932 0.03,-0.2023 z m 0.06,0.57 0.121,0.1654 1.616,-1.1776 -0.12,-0.1654 z m -2.334,-3.2039 2.334,3.2039 1.617,-1.1775 -2.334,-3.204 z m -0.964,-7.0577 0.78,6.5864 1.986,-0.235 -0.78,-6.5865 z m 4.015,-6.1775 -3.841,5.4865 1.639,1.1469 3.84,-5.4865 z m 7.721,-5.1773 -7.453,4.916 1.101,1.6695 7.454,-4.916 z m 7.872,0.5936 -7.217,-0.7534 -0.208,1.9891 7.217,0.7535 z m 5.877,1.6181 -5.713,-1.587 -0.535,1.9271 5.713,1.587 z m 2.877,2.7709 -2.427,-2.5033 -1.436,1.3919 2.427,2.5033 z m 4.745,9.387 -4.569,-9.1383 -1.789,0.8944 4.569,9.1383 z m 3.62,10.1787 -3.572,-10.0659 -1.885,0.6688 3.572,10.0659 z m 4.19,23.5002 -4.148,-23.3407 -1.969,0.3499 4.148,23.3408 z m -2.679,22.687 2.687,-22.393 -1.986,-0.238 -2.687,22.393 z m -0.002,0.015 10e-4,-0.008 -1.984,-0.253 -10e-4,0.008 z m -2.491,18.293 2.49,-18.285 -1.982,-0.269 -2.489,18.284 z m -3.211,16.674 3.202,-16.62 -1.963,-0.378 -3.203,16.62 z m -3.717,4.879 3.519,-4.447 -1.568,-1.241 -3.519,4.447 z m -19.594,3.081 18.952,-2.712 -0.283,-1.98 -18.953,2.712 z m -0.085,0.012 0.085,-0.012 -0.284,-1.98 -0.085,0.012 z m 0.246,-0.064 0.076,-0.04 -0.928,-1.772 -0.076,0.04 z m -2.632,1.378 2.632,-1.378 -0.928,-1.772 -2.632,1.379 z m -0.044,0.023 0.044,-0.023 -0.928,-1.771 -0.044,0.023 z m 0.127,-0.077 0.038,-0.031 -1.258,-1.555 -0.039,0.031 z m -4.559,3.691 4.559,-3.691 -1.259,-1.555 -4.558,3.691 z m -101.121,-25.214 2.498,-7.018 -1.885,-0.67 -2.497,7.018 z m -5.209,7.247 5.076,-6.995 -1.619,-1.174 -5.076,6.994 z m -8.661,3.115 8.171,-2.755 -0.639,-1.895 -8.171,2.755 z m -18.683,-0.498 18.334,0.55 0.06,-1.999 -18.334,-0.55 z m -0.014,0 h 0.014 l 0.061,-1.999 h -0.014 z m 0.042,0 h 0.013 l -0.049,-2 -0.014,10e-4 z m -5.909,0.144 5.908,-0.144 -0.048,-1.999 -5.909,0.144 z m -0.009,0 h 0.008 l -0.048,-1.999 h -0.008 z m 0.025,0 0.008,-0.001 -0.114,-1.997 -0.008,0.001 z m -17.452,1.004 17.452,-1.004 -0.115,-1.997 -17.452,1.004 z m -6.993,-1.862 6.671,1.828 0.528,-1.929 -6.67,-1.828 z m -0.048,-0.013 0.048,0.013 0.529,-1.929 -0.049,-0.013 z m 0.148,0.03 0.05,0.003 0.132,-1.996 -0.051,-0.003 z m -12.755,-0.841 12.755,0.841 0.131,-1.996 -12.754,-0.841 z m -0.051,-0.003 0.051,0.003 0.132,-1.996 -0.051,-0.003 z m 0.152,-10e-4 0.051,-0.007 -0.273,-1.981 -0.05,0.007 z m -4.255,0.585 4.255,-0.585 -0.272,-1.981 -4.255,0.584 z m -4.803,-1.51 4.347,1.467 0.64,-1.895 -4.347,-1.467 z m -0.009,-0.003 0.01,0.003 0.638,-1.895 -0.009,-0.004 z m 0.028,0.009 0.009,0.002 0.565,-1.918 -0.01,-0.003 z m -10.6,-3.116 10.6,3.116 0.564,-1.919 -10.6,-3.115 z m -16.719,-14.562 16.341,14.354 1.32,-1.502 -16.341,-14.355 z m -19.6322,-27.391 19.4792,27.222 1.626,-1.164 -19.4788,-27.222 z M 70.6279,101.043 81.4696,121.59 83.2384,120.656 72.3967,100.11 Z m -0.8403,-17.798 0.7256,17.373 1.9982,-0.083 -0.7255,-17.3734 z M 88.3005,44.7232 69.8866,82.7676 71.6868,83.639 90.1007,45.5945 Z M 135.328,24.9234 88.8171,44.2353 89.584,46.0824 136.095,26.7705 Z m 35.733,-4.9617 -35.486,4.8946 0.273,1.9812 35.487,-4.8946 z m 0.052,-0.0072 -0.052,0.0072 0.274,1.9812 0.052,-0.0072 z m -0.153,0.0321 -0.049,0.0178 0.678,1.8814 0.049,-0.0178 z m 10.885,-3.9249 -10.885,3.9249 0.678,1.8814 10.885,-3.9248 z m 13.077,1.242 -12.636,-1.296 -0.204,1.9895 12.635,1.2961 z m 0.015,0.0016 -0.015,-0.0016 -0.205,1.9896 0.016,0.0015 z m -0.046,-0.0038 -0.015,-6e-4 -0.083,1.9983 0.016,6e-4 z m 41.381,1.7123 -41.381,-1.7123 -0.083,1.9983 41.382,1.7123 z m 20.137,8.7329 -19.777,-8.6499 -0.802,1.8324 19.778,8.6499 z m 14.891,9.584 -14.75,-9.5083 -1.084,1.681 14.751,9.5083 z m 12.095,12.5457 -11.916,-12.3982 -1.442,1.3859 11.916,12.3981 z m 0.279,13.6881 V 50.5693 h -2 v 12.9952 z m -7.383,21.5364 7.328,-21.2099 -1.891,-0.6531 -7.327,21.2099 z m -0.012,0.0357 0.012,-0.0357 -1.89,-0.6531 -0.013,0.0357 z m 0.031,-0.109 0.007,-0.0373 -1.967,-0.3605 -0.007,0.0372 z m -5.757,31.3594 5.757,-31.3591 -1.967,-0.3612 -5.757,31.3583 z m -3.446,8.385 3.387,-8.184 -1.848,-0.764 -3.387,8.183 z m -5.972,4.654 5.648,-4.237 -1.2,-1.6 -5.648,4.237 z m -1.832,1.283 1.805,-1.264 -1.147,-1.638 -1.805,1.263 z m -6.222,0.685 5.737,-0.508 -0.177,-1.993 -5.736,0.509 z m -15.176,-3.97 14.831,3.941 0.514,-1.933 -14.831,-3.941 z m -0.094,-0.025 0.094,0.025 0.514,-1.933 -0.095,-0.025 z m 0.286,0.038 0.097,-0.012 -0.253,-1.984 -0.097,0.012 z m -4.516,0.576 4.516,-0.576 -0.253,-1.984 -4.516,0.577 z m -0.17,0.022 0.17,-0.022 -0.253,-1.983 -0.17,0.021 z m 0.462,-0.165 0.121,-0.122 -1.419,-1.41 -0.121,0.122 z m -3.7,3.723 3.7,-3.723 -1.419,-1.41 -3.699,3.723 z m -0.059,0.06 0.059,-0.06 -1.418,-1.41 -0.06,0.06 z m 0.156,-0.197 0.037,-0.076 -1.805,-0.863 -0.037,0.077 z m -2.869,6.001 2.869,-6.001 -1.805,-0.862 -2.868,6 z m -1.987,3.116 1.927,-3.008 -1.684,-1.079 -1.927,3.009 z m -7.147,7.538 7.029,-7.388 -1.449,-1.378 -7.029,7.387 z m -0.03,0.031 0.03,-0.031 -1.449,-1.379 -0.03,0.032 z m 0.085,-0.1 0.024,-0.036 -1.667,-1.106 -0.024,0.037 z m -2.931,4.42 2.931,-4.42 -1.667,-1.105 -2.931,4.42 z m -0.033,0.051 0.033,-0.051 -1.667,-1.105 -0.033,0.051 z m 0.088,-0.16 0.02,-0.057 -1.884,-0.671 -0.021,0.058 z m 45.6,-22.525 0.679,0.522 1.219,-1.585 -0.68,-0.522 z m 5.247,-5.521 -5.238,3.929 1.2,1.6 5.238,-3.929 z m 0.11,-0.082 -0.11,0.082 1.2,1.6 0.11,-0.082 z m -0.272,0.291 -0.052,0.127 1.848,0.764 0.052,-0.126 z m 3.459,-8.359 -3.459,8.359 1.848,0.765 3.459,-8.359 z m 0.02,-0.049 -0.02,0.049 1.848,0.765 0.02,-0.049 z m -0.05,0.15 -0.01,0.052 1.968,0.361 0.009,-0.052 z m 5.748,-31.3083 -5.748,31.3083 1.967,0.361 5.748,-31.3081 z m 6.039,-9.1263 -5.885,8.7487 1.659,1.1164 5.886,-8.7487 z m 6.506,-2.0192 -5.938,1.6124 0.524,1.9301 5.938,-1.6124 z m 8.198,-0.433 -7.986,0.3993 0.1,1.9975 7.985,-0.3993 z m 14.525,7.2394 -14.022,-7.132 -0.907,1.7827 14.022,7.1319 z m 2.855,2.9842 -2.576,-2.7734 -1.465,1.361 2.575,2.7733 z m 2.348,3.212 -2.273,-3.1203 -1.616,1.1776 2.273,3.1203 z m -0.585,5.9094 0.766,-5.1741 -1.978,-0.293 -0.767,5.174 z m -6.977,8.5358 6.753,-8.0391 -1.531,-1.2864 -6.753,8.0392 z m -5.01,4.607 4.92,-4.513 -1.352,-1.474 -4.92,4.514 z m -0.079,0.073 0.079,-0.072 -1.352,-1.474 -0.079,0.073 z m 0.201,-0.245 0.042,-0.099 -1.839,-0.785 -0.042,0.099 z m -2.827,6.624 2.827,-6.624 -1.839,-0.785 -2.828,6.624 z m -7.162,7.98 6.983,-7.7 -1.482,-1.344 -6.983,7.701 z m -10.929,2.322 10.379,-2.012 -0.381,-1.963 -10.379,2.011 z m -0.047,0.009 0.046,-0.009 -0.38,-1.964 -0.046,0.009 z m 0.137,-0.036 0.044,-0.017 -0.742,-1.858 -0.044,0.018 z m -19.796,7.9 19.796,-7.9 -0.742,-1.857 -19.795,7.9 z"
             fill="#000000"
             mask="url(#path-3-inside-1)"
             id="path9" />
        </g>
      </g>
      <g
         id="zone-connectors">
        <path
           id="primary"
           d="m 127,232.514 h 31.49 L 176,209.5"
           stroke="#525252"
           stroke-linecap="round" />
        <path
           id="base"
           d="m 372.5,171.5 h -30"
           stroke="#525252"
           stroke-linecap="round" />
        <path
           id="readymix"
           d="M 292.525,74.8594 V 60.2014"
           stroke="#525252"
           stroke-linecap="round" />
        <path
           id="pickup"
           d="m 323.5,214 20.5,18.5 h 26.38"
           stroke="#525252"
           stroke-linecap="round" />
        <path
           id="quarry"
           d="M 59,138.5 H 95"
           stroke="#525252"
           stroke-linecap="round" />
      </g>
      <g
         id="zone-arrows">
        <path
           id="readymix-recycle"
           d="m 320.413,74.1139 -0.129,0.4829 0.129,-0.4829 c -0.533,-0.143 -1.082,0.1736 -1.225,0.7071 l 0.483,0.1294 -0.483,-0.1294 c -0.143,0.5334 0.174,1.0818 0.707,1.2247 l 1.767,0.4732 -20.068,11.5858 0.474,-1.7661 c 0.143,-0.5335 -0.174,-1.0818 -0.707,-1.2247 -0.534,-0.143 -1.082,0.1736 -1.225,0.7071 l -0.969,3.6151 c -0.214,0.8002 0.261,1.6227 1.061,1.8371 l 3.615,0.9687 c 0.533,0.1429 1.082,-0.1737 1.225,-0.7071 0.143,-0.5335 -0.174,-1.0819 -0.707,-1.2248 l -1.767,-0.4732 20.068,-11.5858 -0.474,1.7661 c -0.143,0.5335 0.174,1.0818 0.707,1.2248 0.534,0.1429 1.082,-0.1737 1.225,-0.7072 l 0.969,-3.6151 c 0.214,-0.8002 -0.261,-1.6227 -1.061,-1.8371 z"
           fill="#ffffff"
           stroke="#525252"
           stroke-linecap="round" />
        <path
           id="quarry-readymix"
           d="m 285,93.7929 -0.354,0.3535 0.354,-0.3535 c -0.391,-0.3905 -1.024,-0.3905 -1.414,0 l 0.353,0.3535 -0.353,-0.3535 c -0.391,0.3905 -0.391,1.0237 0,1.4142 L 284.879,96.5 H 261.707 L 263,95.2071 c 0.391,-0.3905 0.391,-1.0237 0,-1.4142 -0.391,-0.3905 -1.024,-0.3905 -1.414,0 l -2.647,2.6464 c -0.585,0.5858 -0.585,1.5356 0,2.1214 l 2.647,2.6463 c 0.39,0.391 1.023,0.391 1.414,0 0.391,-0.39 0.391,-1.024 0,-1.4141 L 261.707,98.5 h 23.172 l -1.293,1.2929 c -0.391,0.3901 -0.391,1.0241 0,1.4141 0.39,0.391 1.023,0.391 1.414,0 l 2.646,-2.6463 c 0.586,-0.5858 0.586,-1.5356 0,-2.1214 z"
           fill="#ffffff"
           stroke="#525252"
           stroke-linecap="round" />
        <path
           id="quarry-recycle"
           d="m 243.242,134.413 -0.483,-0.129 0.483,0.129 c 0.142,-0.533 -0.174,-1.082 -0.708,-1.225 l -0.129,0.483 0.129,-0.483 c -0.533,-0.143 -1.081,0.174 -1.224,0.707 l -0.474,1.767 -11.585,-20.068 1.766,0.474 c 0.533,0.143 1.082,-0.174 1.225,-0.707 0.142,-0.534 -0.174,-1.082 -0.708,-1.225 l -3.615,-0.969 c -0.8,-0.214 -1.622,0.261 -1.837,1.061 l -0.968,3.615 c -0.143,0.533 0.173,1.082 0.707,1.225 0.533,0.143 1.081,-0.174 1.224,-0.707 l 0.474,-1.767 11.585,20.068 -1.766,-0.474 c -0.533,-0.143 -1.082,0.174 -1.224,0.707 -0.143,0.534 0.173,1.082 0.707,1.225 l 3.615,0.969 c 0.8,0.214 1.622,-0.261 1.837,-1.061 z"
           fill="#ffffff"
           stroke="#525252"
           stroke-linecap="round" />
        <path
           id="primary-quarry"
           d="m 173.207,181 -0.353,-0.354 0.353,0.354 c 0.391,-0.391 0.391,-1.024 0,-1.414 l -0.353,0.353 0.353,-0.353 c -0.39,-0.391 -1.024,-0.391 -1.414,0 l -1.293,1.293 v -23.172 l 1.293,1.293 c 0.39,0.391 1.024,0.391 1.414,0 0.391,-0.391 0.391,-1.024 0,-1.414 l -2.646,-2.647 c -0.586,-0.585 -1.536,-0.585 -2.122,0 l -2.646,2.647 c -0.391,0.39 -0.391,1.023 0,1.414 0.39,0.391 1.024,0.391 1.414,0 l 1.293,-1.293 v 23.172 l -1.293,-1.293 c -0.39,-0.391 -1.024,-0.391 -1.414,0 -0.391,0.39 -0.391,1.023 0,1.414 l 2.646,2.646 c 0.586,0.586 1.536,0.586 2.122,0 z"
           fill="#ffffff"
           stroke="#525252"
           stroke-linecap="round" />
        <path
           id="primary-recycle"
           d="m 306.413,168.114 -0.129,0.483 0.129,-0.483 c -0.533,-0.143 -1.082,0.173 -1.225,0.707 l 0.483,0.129 -0.483,-0.129 c -0.143,0.533 0.174,1.082 0.707,1.224 l 1.767,0.474 -20.068,11.585 0.474,-1.766 c 0.143,-0.533 -0.174,-1.081 -0.707,-1.224 -0.534,-0.143 -1.082,0.173 -1.225,0.707 l -0.969,3.615 c -0.214,0.8 0.261,1.623 1.061,1.837 l 3.615,0.969 c 0.533,0.143 1.082,-0.174 1.225,-0.707 0.143,-0.534 -0.174,-1.082 -0.707,-1.225 l -1.767,-0.473 20.068,-11.586 -0.474,1.766 c -0.143,0.533 0.174,1.082 0.707,1.225 0.534,0.143 1.082,-0.174 1.225,-0.707 l 0.969,-3.616 c 0.214,-0.8 -0.261,-1.622 -1.061,-1.837 z"
           fill="#ffffff"
           stroke="#525252"
           stroke-linecap="round" />
        <path
           id="pickup-primary"
           d="m 318.835,202.471 -0.353,0.353 0.353,-0.353 c -0.39,-0.391 -1.024,-0.391 -1.414,0 l 0.353,0.353 -0.353,-0.353 c -0.391,0.39 -0.391,1.023 0,1.414 l 1.293,1.293 h -23.172 l 1.293,-1.293 c 0.391,-0.391 0.391,-1.024 0,-1.414 -0.39,-0.391 -1.024,-0.391 -1.414,0 l -2.647,2.646 c -0.585,0.586 -0.585,1.536 0,2.121 l 2.647,2.647 c 0.39,0.39 1.024,0.39 1.414,0 0.391,-0.391 0.391,-1.024 0,-1.414 l -1.293,-1.293 h 23.172 l -1.293,1.293 c -0.391,0.39 -0.391,1.023 0,1.414 0.39,0.39 1.024,0.39 1.414,0 l 2.647,-2.647 c 0.585,-0.585 0.585,-1.535 0,-2.121 z"
           fill="#ffffff"
           stroke="#525252"
           stroke-linecap="round" />
        <path
           id="pickup-recycle"
           d="m 324.793,166.586 0.353,0.353 -0.353,-0.353 c -0.391,0.39 -0.391,1.023 0,1.414 l 0.353,-0.354 -0.353,0.354 c 0.39,0.39 1.024,0.39 1.414,0 l 1.293,-1.293 v 23.172 l -1.293,-1.293 c -0.39,-0.391 -1.024,-0.391 -1.414,0 -0.391,0.39 -0.391,1.023 0,1.414 l 2.646,2.646 c 0.586,0.586 1.536,0.586 2.122,0 L 332.207,190 c 0.391,-0.391 0.391,-1.024 0,-1.414 -0.39,-0.391 -1.024,-0.391 -1.414,0 l -1.293,1.293 v -23.172 l 1.293,1.293 c 0.39,0.39 1.024,0.39 1.414,0 0.391,-0.391 0.391,-1.024 0,-1.414 l -2.646,-2.647 c -0.586,-0.586 -1.536,-0.586 -2.122,0 z"
           fill="#ffffff"
           stroke="#525252"
           stroke-linecap="round" />
      </g>
      <g
         id="zone-text">
        <text
           id="zone-primary"
           fill="#000000"
           stroke="#ffffff"
           stroke-linejoin="round"
           xml:space="preserve"
           style="white-space:pre;paint-order:stroke fill markers"
           font-family="'Open Sans Condensed'"
           font-size="8px"
           font-weight="bold"
           letter-spacing="0.06em"><tspan
             x="80.473297"
             y="235.104"
             id="tspan27"
             style="paint-order:stroke fill markers">Primary Zone</tspan></text>
        <text
           id="zone-unknown"
           fill="#000000"
           stroke="#ffffff"
           stroke-linejoin="round"
           xml:space="preserve"
           style="white-space:pre;paint-order:stroke fill markers"
           font-family="'Open Sans Condensed'"
           font-size="8px"
           font-weight="bold"
           letter-spacing="0.06em"><tspan
             x="23.4741"
             y="235.104"
             id="tspan30"
             style="paint-order:stroke fill markers">Unknown</tspan></text>
        <text
           id="zone-base"
           fill="#000000"
           stroke="#ffffff"
           stroke-linejoin="round"
           xml:space="preserve"
           style="white-space:pre;paint-order:stroke fill markers"
           font-family="'Open Sans Condensed'"
           font-size="8px"
           font-weight="bold"
           letter-spacing="0.06em"><tspan
             x="370.30301"
             y="174.104"
             id="tspan33"
             style="paint-order:stroke fill markers">Base Zone</tspan></text>
        <text
           id="zone-pickup"
           fill="#000000"
           stroke="#ffffff"
           stroke-linejoin="round"
           xml:space="preserve"
           style="white-space:pre;paint-order:stroke fill markers"
           font-family="'Open Sans Condensed'"
           font-size="8px"
           font-weight="bold"
           letter-spacing="0.06em"><tspan
             x="368.284"
             y="235.104"
             id="tspan36"
             style="paint-order:stroke fill markers">Pickup Zone</tspan></text>
        <text
           id="zone-readymix"
           fill="#000000"
           stroke="#ffffff"
           stroke-linejoin="round"
           xml:space="preserve"
           style="white-space:pre;paint-order:stroke fill markers"
           font-family="'Open Sans Condensed'"
           font-size="8px"
           font-weight="bold"
           letter-spacing="0.06em"><tspan
             x="286.27701"
             y="64.1035"
             id="tspan39"
             style="paint-order:stroke fill markers">Ready Mix Plant</tspan></text>
        <text
           id="zone-quarry"
           fill="#000000"
           stroke="#ffffff"
           stroke-linejoin="round"
           xml:space="preserve"
           style="white-space:pre;paint-order:stroke fill markers"
           font-family="'Open Sans Condensed'"
           font-size="8px"
           font-weight="bold"
           letter-spacing="0.06em"><tspan
             x="18.2953"
             y="141.104"
             id="tspan42"
             style="paint-order:stroke fill markers">Quarry Zone</tspan></text>
      </g>
    </g>
    <g
       id="fences">
      <g
         id="fence-area">
        <path
           id="base_2"
           d="m 263.78,116.364 -6.17,-1.864 -3.318,9.46 1.934,4.433 h 3.149 z"
           fill="#000000"
           stroke="#ffffff"
           stroke-linejoin="round" />
        <path
           id="readymix_2"
           d="m 288.5,104.5 -8.5,0.5 -5,5 0.5,7.5 14,0.5 z"
           fill="#000000"
           stroke="#ffffff"
           stroke-linejoin="round" />
        <path
           id="main"
           d="m 213.374,131.57 1.609,-5.055 6.142,2.471 -1.553,3.417 z"
           fill="#000000"
           stroke="#ffffff"
           stroke-linejoin="round" />
        <path
           id="oversize"
           d="m 190.066,145.28 1.777,-7.061 11.626,2.738 -1.009,5.837 z"
           fill="#000000"
           stroke="#ffffff"
           stroke-linejoin="round" />
        <path
           id="wash"
           d="m 251.359,168.473 2.321,-8.384 3.02,0.355 4.456,3.315 -2.028,5.738 z"
           fill="#000000"
           stroke="#ffffff"
           stroke-linejoin="round" />
        <path
           id="recycle"
           d="m 254.778,150.763 1.314,-8.164 10.589,0.718 -0.423,7.588 z"
           fill="#000000"
           stroke="#ffffff"
           stroke-linejoin="round" />
      </g>
      <g
         id="fence-connectors">
        <path
           id="main_2"
           d="m 172,103 h 29 l 14,23.5"
           stroke="#ffffff" />
        <path
           id="wash_2"
           d="m 255,168.904 v 27.594 l -6.5,9 H 233"
           stroke="#ffffff" />
        <path
           id="base_3"
           d="M 258,115 237.525,84 H 219"
           stroke="#ffffff" />
        <path
           id="readymix_3"
           d="M 336.377,109.5 H 289"
           stroke="#ffffff" />
        <path
           id="oversize_2"
           d="m 152.879,148.034 h 20 L 178.5,141.5 H 191"
           stroke="#ffffff" />
        <path
           id="recycle_2"
           d="m 266,146 h 9.809 l 11.161,10 H 299"
           stroke="#ffffff" />
      </g>
      <g
         id="fence-text">
        <text
           id="fence-base"
           fill="#000000"
           stroke="#ffffff"
           stroke-linejoin="round"
           xml:space="preserve"
           style="white-space:pre;paint-order:stroke fill markers"
           font-family="'Open Sans Condensed'"
           font-size="8px"
           font-weight="bold"
           letter-spacing="0.06em"><tspan
             x="205.55499"
             y="86.1035"
             id="tspan61"
             style="paint-order:stroke fill markers">Base Plant</tspan></text>
        <text
           id="fence-readymix"
           fill="#000000"
           stroke="#ffffff"
           stroke-linejoin="round"
           xml:space="preserve"
           style="white-space:pre;paint-order:stroke fill markers"
           font-family="'Open Sans Condensed'"
           font-size="8px"
           font-weight="bold"
           letter-spacing="0.06em"><tspan
             x="331.27701"
             y="113.104"
             id="tspan64"
             style="paint-order:stroke fill markers">Ready Mix Plant</tspan></text>
        <text
           id="fence-recycle"
           fill="#000000"
           stroke="#ffffff"
           stroke-linejoin="round"
           xml:space="preserve"
           style="white-space:pre;paint-order:stroke fill markers"
           font-family="'Open Sans Condensed'"
           font-size="8px"
           font-weight="bold"
           letter-spacing="0.06em"><tspan
             x="295.17499"
             y="160.11"
             id="tspan67"
             style="paint-order:stroke fill markers">Recycle Plant</tspan></text>
        <text
           id="fence-wash"
           fill="#000000"
           stroke="#ffffff"
           stroke-linejoin="round"
           xml:space="preserve"
           style="white-space:pre;paint-order:stroke fill markers"
           font-family="'Open Sans Condensed'"
           font-size="8px"
           font-weight="bold"
           letter-spacing="0.06em"><tspan
             x="194.289"
             y="208.104"
             id="tspan70"
             style="paint-order:stroke fill markers">Wash Plant</tspan></text>
        <text
           id="fence-main"
           fill="#000000"
           stroke="#ffffff"
           stroke-linejoin="round"
           xml:space="preserve"
           style="white-space:pre;paint-order:stroke fill markers"
           font-family="'Open Sans Condensed'"
           font-size="8px"
           font-weight="bold"
           letter-spacing="0.06em"><tspan
             x="135.785"
             y="106.104"
             id="tspan73"
             style="paint-order:stroke fill markers">Main Plant</tspan></text>
        <text
           id="fence-oversize"
           fill="#000000"
           stroke="#ffffff"
           stroke-linejoin="round"
           xml:space="preserve"
           style="white-space:pre;paint-order:stroke fill markers"
           font-family="'Open Sans Condensed'"
           font-size="8px"
           font-weight="bold"
           letter-spacing="0.06em"><tspan
             x="112.735"
             y="151.104"
             id="tspan76"
             style="paint-order:stroke fill markers">Oversize Plant</tspan></text>
      </g>
    </g>
    <g
       id="graphs">
      <g
         id="bars">
        <image
           id="bar-base"
           x="194"
           y="47"
           width="60"
           height="30"
           fill="#ffffff"
           href="overlay.chart.bar.png" />
        <image
           id="bar-readymix"
           x="330"
           y="74"
           width="60"
           height="30"
           fill="#ffffff"
           href="overlay.chart.bar.png" />
        <image
           id="bar-recycle"
           x="288"
           y="121"
           width="60"
           height="30"
           fill="#ffffff"
           href="overlay.chart.bar.png" />
        <image
           id="bar-wash"
           x="185"
           y="169"
           width="60"
           height="30"
           fill="#ffffff"
           href="overlay.chart.bar.png" />
        <image
           id="bar-main"
           x="125"
           y="67"
           width="60"
           height="30"
           fill="#ffffff"
           href="overlay.chart.bar.png" />
        <image
           id="bar-oversize"
           x="108"
           y="112"
           width="60"
           height="30"
           fill="#ffffff"
           href="overlay.chart.bar.png" />
      </g>
      <g
         id="pies">
        <image
           id="pie-quarry"
           x="15"
           y="84"
           width="50"
           height="50"
           fill="#ffffff"
           href="overlay.chart.pie.png" />
        <image
           id="pie-base"
           x="364"
           y="118"
           width="50"
           height="50"
           fill="#ffffff"
           href="overlay.chart.pie.png" />
        <image
           id="pie-readymix"
           x="290"
           y="8"
           width="50"
           height="50"
           fill="#ffffff"
           href="overlay.chart.pie.png" />
        <image
           id="pie-pickup"
           x="364"
           y="179"
           width="50"
           height="50"
           fill="#ffffff"
           href="overlay.chart.pie.png" />
        <image
           id="pie-primary"
           x="79"
           y="179"
           width="50"
           height="50"
           fill="#ffffff"
           href="overlay.chart.pie.png" />
        <image
           id="pie-unknown"
           x="15"
           y="179"
           width="50"
           height="50"
           fill="#ffffff"
           href="overlay.chart.pie.png" />
      </g>
    </g>
  </g>
</svg>
