<?xml version="1.0" encoding="UTF-8" standalone="no"?>
<svg
   xmlns:dc="http://purl.org/dc/elements/1.1/"
   xmlns:cc="http://creativecommons.org/ns#"
   xmlns:rdf="http://www.w3.org/1999/02/22-rdf-syntax-ns#"
   xmlns:svg="http://www.w3.org/2000/svg"
   xmlns="http://www.w3.org/2000/svg"
   viewBox="0 0 104.98461 96.613511"
   height="96.61351"
   width="104.9846"
   xml:space="preserve"
   id="svg2"
   version="1.1">
  
  <metadata
   id="metadata8">
    <rdf:RDF>
      <cc:Work
   rdf:about="">
        <dc:format>image/svg+xml</dc:format>
        <dc:type
   rdf:resource="http://purl.org/dc/dcmitype/StillImage" />
        <dc:title></dc:title>
      </cc:Work>
    </rdf:RDF>
  </metadata>
  <defs
   id="defs6">
    <clipPath
   id="clipPath90"
   clipPathUnits="userSpaceOnUse">
      <path
   id="path88"
   d="m 62.001,211.701 c -9.044,-0.88 -20.268,-7.21 -23.253,-17.213 v 0 c -1.541,-5.162 -1.268,-9.904 0.769,-13.351 v 0 c 1.297,-2.195 3.248,-3.743 5.494,-4.36 v 0 c 0.234,-0.065 0.405,-0.258 0.43,-0.488 v 0 c 0.025,-0.228 -0.1,-0.444 -0.315,-0.543 v 0 c -2.345,-1.072 -3.774,-3.797 -3.73,-7.111 v 0 c 0.054,-4.127 2.46,-9.656 9.049,-12.802 v 0 c 2.052,-0.98 4.432,-2.718 7.188,-4.731 v 0 c 4.622,-3.375 9.86,-7.2 15.136,-8.557 v 0 c 3.905,-1.005 7.263,-0.501 10.263,1.542 v 0 c 0.009,0.007 0.019,0.013 0.029,0.018 v 0 c 3.679,2.186 2.672,7.751 2.661,7.807 v 0 c -0.038,0.203 0.044,0.407 0.214,0.529 v 0 c 0.17,0.122 0.398,0.143 0.595,0.054 v 0 c 0.026,-0.012 2.582,-1.167 5.837,-2.004 v 0 c 3.379,-0.87 6.232,-1.091 8.48,-0.657 v 0 c 8.924,1.722 10.022,6.292 11.541,12.615 v 0 c 0.17,0.706 0.343,1.428 0.533,2.166 v 0 c 1.35,5.249 0.805,9.426 -1.623,12.413 v 0 c -1.782,2.194 -4.643,3.812 -8.498,4.803 v 0 c -2.098,0.54 -4.089,0.801 -5.542,0.991 v 0 c -0.846,0.111 -1.515,0.198 -1.942,0.308 v 0 c -0.197,0.051 -0.354,0.196 -0.416,0.383 v 0 c -0.06,0.186 -0.015,0.387 0.12,0.528 v 0 c 1.17,1.229 3.417,11.54 1.565,17.449 v 0 c -0.591,1.888 -1.55,3.036 -2.85,3.417 v 0 c -3.21,0.397 -8.329,-2.872 -9.581,-4.976 v 0 c -0.129,-0.217 -0.406,-0.329 -0.656,-0.248 v 0 c -0.256,0.073 -0.433,0.3 -0.429,0.553 v 0 c 0.073,5.067 -3.808,9.226 -10.127,10.851 v 0 c -2.101,0.541 -4.446,0.812 -7.004,0.812 v 0 c -1.262,0 -2.576,-0.066 -3.938,-0.198 m 10.384,-65.23 c -4.68,1.205 -9.189,4.475 -13.167,7.36 v 0 c -2.093,1.518 -4.07,2.953 -5.655,3.739 v 0 c -5.832,2.899 -8.016,7.904 -8.113,11.622 v 0 c -0.069,2.622 0.812,4.842 2.404,6.182 v 0 c -1.941,0.976 -3.531,2.717 -4.464,4.931 v 0 c -1.267,3.005 -1.311,6.706 -0.127,10.703 v 0 c 2.597,8.806 12.008,14.357 19.96,15.287 v 0 c 3.722,0.436 7.051,0.286 9.896,-0.446 v 0 c 4.79,-1.232 8.07,-4.188 8.907,-7.899 v 0 c 1.996,1.766 5.656,3.568 8.243,3.212 v 0 c 0.032,-0.005 0.064,-0.012 0.095,-0.02 v 0 c 1.441,-0.396 2.516,-1.49 3.198,-3.253 v 0 c 1.713,-4.431 0.517,-11.975 -0.531,-14.71 v 0 c 0.299,-0.061 0.649,-0.127 1.031,-0.198 v 0 c 0.928,-0.174 2.083,-0.389 3.322,-0.708 v 0 c 7.124,-1.833 10.72,-5.716 10.738,-11.572 v 0 -0.089 c -0.004,-1.408 -0.214,-2.93 -0.63,-4.564 v 0 c -0.141,-0.556 -0.272,-1.103 -0.401,-1.639 v 0 C 105.8,159.03 104.687,154.385 96.567,152.65 v 0 c -2.198,-0.47 -5.001,-0.274 -8.329,0.583 v 0 c -1.379,0.354 -2.567,0.752 -3.319,1.012 v 0 c 0.006,-3.103 -0.991,-5.258 -2.968,-6.412 v 0 c -1.85,-1.213 -3.895,-1.822 -6.11,-1.822 v 0 c -1.11,0 -2.263,0.153 -3.456,0.46" />
    </clipPath>
    <clipPath
   id="clipPath100"
   clipPathUnits="userSpaceOnUse">
      <path
   id="path98"
   d="m 63.428,204.979 c -4.037,-0.474 -8.151,-2.12 -11.582,-4.639 v 0 c -3.654,-2.682 -6.158,-6.044 -7.244,-9.723 v 0 c -1.741,-5.881 -0.624,-12.745 4.88,-14.482 v 0 c 0.266,-0.083 0.459,-0.31 0.488,-0.576 v 0 c 0.03,-0.264 -0.109,-0.516 -0.352,-0.64 v 0 c -1.782,-0.906 -2.846,-3.101 -2.778,-5.729 v 0 c 0.088,-3.33 2.062,-7.824 7.34,-10.446 v 0 c 1.693,-0.841 3.625,-2.242 5.861,-3.864 v 0 c 3.874,-2.81 8.264,-5.993 12.674,-7.128 v 0 c 3.209,-0.825 5.97,-0.436 8.442,1.19 v 0 c 0.01,0.006 0.021,0.013 0.032,0.02 v 0 c 1.67,0.967 2.452,2.948 2.326,5.888 v 0 c -0.015,0.351 -0.032,0.749 0.407,0.931 v 0 c 0.23,0.095 0.436,0.041 0.513,0.022 v 0 c 0.119,-0.031 0.291,-0.09 0.637,-0.211 v 0 c 0.74,-0.257 1.98,-0.689 3.495,-1.078 v 0 c 3.107,-0.8 5.685,-0.992 7.663,-0.569 v 0 c 7.29,1.558 8.219,5.431 9.505,10.792 v 0 c 0.129,0.542 0.262,1.093 0.404,1.654 v 0 c 1.974,7.745 -0.998,12.521 -9.085,14.602 v 0 c -1.191,0.307 -2.318,0.516 -3.225,0.685 v 0 c -0.863,0.162 -1.566,0.295 -1.999,0.445 v 0 c -0.206,0.071 -0.369,0.231 -0.439,0.429 v 0 c -0.069,0.199 -0.036,0.415 0.086,0.584 v 0 c 0.786,1.072 2.588,9.648 0.781,14.323 v 0 c -0.506,1.309 -1.246,2.114 -2.201,2.396 v 0 c -2.531,0.309 -6.841,-2.019 -7.932,-3.664 v 0 c -0.158,-0.239 -0.464,-0.511 -0.756,-0.436 v 0 c 0,0 -0.008,0.002 -0.013,0.004 v 0 c -0.295,0.081 -0.45,0.48 -0.462,0.771 v 0 c -0.159,3.867 -3.222,6.782 -8.105,8.038 v 0 c -1.667,0.429 -3.52,0.644 -5.541,0.644 v 0 c -1.214,0 -2.489,-0.078 -3.82,-0.233 m 8.845,-53.513 c -3.867,0.995 -7.555,3.644 -10.808,5.981 v 0 c -1.584,1.138 -3.08,2.212 -4.297,2.852 v 0 c -4.577,2.408 -6.362,6.437 -6.507,9.404 v 0 c -0.097,2.004 0.482,3.758 1.586,4.919 v 0 c -3.049,1.87 -5.193,6.289 -3.354,12.577 v 0 c 2.039,7.04 9.434,11.662 15.686,12.589 v 0 c 1.234,0.183 2.416,0.284 3.543,0.302 v 0 h 0.748 c 1.496,-0.025 2.886,-0.201 4.161,-0.529 v 0 c 3.444,-0.886 5.9,-2.875 6.837,-5.456 v 0 c 1.712,1.321 4.548,2.588 6.622,2.293 v 0 c 0.035,-0.005 0.068,-0.013 0.104,-0.022 v 0 c 1.135,-0.306 2.028,-1.09 2.654,-2.328 v 0 c 1.687,-3.338 1.008,-9.378 0.4,-11.755 v 0 c 0.296,-0.087 0.645,-0.18 1.022,-0.281 v 0 c 2.11,-0.562 5.299,-1.414 7.665,-3.473 v 0 c 2.889,-2.513 3.763,-6.136 2.599,-10.767 v 0 c -0.092,-0.371 -0.179,-0.739 -0.265,-1.102 v 0 c -1.088,-4.558 -2.029,-8.496 -8.626,-10.118 v 0 c -2.044,-0.5 -4.693,-0.318 -8.099,0.558 v 0 c -0.356,0.092 -0.677,0.179 -0.953,0.254 v 0 c -0.053,0.014 -0.105,0.028 -0.153,0.042 v 0 c -0.106,-1.306 -0.46,-3.684 -2.651,-4.917 v 0 c -1.515,-0.942 -3.182,-1.413 -4.979,-1.413 v 0 c -0.944,0 -1.923,0.129 -2.935,0.39" />
    </clipPath>
    <clipPath
   id="clipPath110"
   clipPathUnits="userSpaceOnUse">
      <path
   id="path108"
   d="m 64.868,198.257 c -5.751,-0.852 -12.548,-5.079 -14.41,-11.509 v 0 c -1.794,-6.131 0.567,-10.137 3.52,-11.263 v 0 c 0.287,-0.11 0.488,-0.362 0.521,-0.654 v 0 c 0.034,-0.29 -0.107,-0.571 -0.364,-0.723 v 0 c -1.256,-0.749 -1.949,-2.383 -1.853,-4.373 v 0 c 0.124,-2.538 1.67,-5.995 5.642,-8.084 v 0 c 1.32,-0.696 2.863,-1.804 4.495,-2.977 v 0 c 3.132,-2.25 6.683,-4.799 10.237,-5.714 v 0 c 2.517,-0.648 4.688,-0.372 6.634,0.842 v 0 c 0.012,0.006 0.023,0.012 0.034,0.019 v 0 c 1.709,0.954 1.852,3.07 1.92,4.086 v 0 c 0.034,0.508 0.063,0.947 0.548,1.148 v 0 c 0.307,0.127 0.601,0.061 1.055,-0.056 v 0 c 0.155,-0.039 0.34,-0.09 0.551,-0.146 v 0 c 0.27,-0.074 0.583,-0.16 0.93,-0.249 v 0 c 1.149,-0.295 4.647,-1.195 7.271,-0.551 v 0 c 5.671,1.394 6.433,4.583 7.486,8.998 v 0 c 0.088,0.366 0.176,0.739 0.27,1.116 v 0 c 2.339,9.308 -4.812,11.216 -9.084,12.355 v 0 c -0.836,0.223 -1.498,0.4 -1.958,0.609 v 0 c -0.405,0.185 -0.587,0.641 -0.41,1.025 v 0 c 0.515,1.115 1.553,7.953 -0.113,11.25 v 0 c -0.404,0.797 -0.911,1.278 -1.551,1.467 v 0 c -1.961,0.24 -5.427,-1.339 -6.378,-2.565 v 0 c -0.193,-0.25 -0.525,-0.557 -0.845,-0.475 v 0 c 0,0 -0.006,0.002 -0.009,0.002 v 0 c -0.322,0.086 -0.335,0.535 -0.378,0.851 v 0 c -0.351,2.616 -2.597,4.509 -5.983,5.381 v 0 c -1.239,0.318 -2.611,0.478 -4.102,0.478 v 0 c -1.156,0 -2.383,-0.096 -3.676,-0.288 m 7.278,-41.796 c -3.077,0.792 -6.091,2.929 -8.511,4.647 v 0 c -1.052,0.746 -2.044,1.451 -2.878,1.93 v 0 c -2.792,1.605 -4.619,4.264 -4.882,7.111 v 0 c -0.134,1.44 0.174,2.759 0.841,3.725 v 0 c -1.528,1.208 -2.66,3.299 -2.686,6.066 v 0 0.192 c 0.009,1.002 0.163,2.089 0.492,3.253 v 0 c 1.338,4.727 6.02,8.794 11.383,9.89 v 0 c 2.671,0.545 5.052,0.557 7.079,0.036 v 0 c 2.109,-0.543 3.746,-1.658 4.66,-3.137 v 0 c 1.327,0.86 3.384,1.712 5.072,1.459 v 0 c 0.035,-0.005 0.07,-0.01 0.104,-0.021 v 0 c 3.876,-1.018 3.631,-7.753 3.409,-10.209 v 0 c 0.272,-0.12 0.598,-0.249 0.951,-0.391 v 0 c 2.728,-1.086 7.471,-2.976 7.566,-8.467 v 0 -0.335 c -0.014,-0.822 -0.13,-1.722 -0.367,-2.709 v 0 l -0.135,-0.559 c -0.849,-3.574 -1.653,-6.95 -6.699,-8.477 v 0 c -2.176,-0.657 -4.776,-0.216 -6.329,0.046 v 0 c -0.161,0.027 -0.338,0.058 -0.499,0.083 v 0 c -0.207,-0.9 -0.649,-2.586 -2.31,-3.458 v 0 c -1.177,-0.665 -2.46,-0.998 -3.834,-0.998 v 0 c -0.78,0 -1.591,0.108 -2.427,0.323" />
    </clipPath>
    <clipPath
   id="clipPath120"
   clipPathUnits="userSpaceOnUse">
      <path
   id="path118"
   d="m 66.338,191.544 c -4.656,-0.952 -8.872,-4.594 -10.025,-8.662 v 0 c -1.189,-4.199 0.255,-7.081 2.213,-8.076 v 0 c 0.277,-0.14 0.466,-0.403 0.502,-0.699 v 0 c 0.036,-0.295 -0.085,-0.585 -0.324,-0.771 v 0 c -0.74,-0.577 -1.108,-1.727 -0.983,-3.077 v 0 c 0.212,-2.271 1.692,-4.407 3.963,-5.713 v 0 c 0.913,-0.525 1.942,-1.254 3.031,-2.028 v 0 c 2.411,-1.71 5.143,-3.647 7.87,-4.349 v 0 c 1.839,-0.474 3.428,-0.309 4.857,0.503 v 0 c 0.01,0.004 0.02,0.01 0.03,0.015 v 0 c 1.026,0.534 1.285,1.679 1.456,2.436 v 0 c 0.121,0.534 0.224,0.996 0.735,1.207 v 0 c 0.401,0.165 0.849,0.089 1.83,-0.077 v 0 c 1.385,-0.234 3.705,-0.627 5.45,-0.1 v 0 c 4.067,1.23 4.664,3.744 5.492,7.223 v 0 l 0.135,0.565 c 1.547,6.409 -3.034,8.234 -6.066,9.442 v 0 c -0.695,0.276 -1.296,0.516 -1.74,0.782 v 0 c -0.311,0.186 -0.483,0.525 -0.443,0.868 v 0 c 0.372,3.11 0.179,8.234 -1.901,8.86 v 0 c -1.334,0.162 -3.925,-0.61 -4.738,-1.43 v 0 c -0.225,-0.226 -0.473,-0.6 -0.796,-0.522 v 0 c -0.325,0.073 -0.253,0.595 -0.352,0.899 v 0 c -0.471,1.45 -2,2.252 -3.99,2.764 v 0 c -0.831,0.213 -1.744,0.32 -2.73,0.32 v 0 c -1.074,0 -2.235,-0.127 -3.476,-0.38 m 5.637,-30.084 c -2.416,0.621 -4.69,2.237 -6.516,3.535 v 0 c -0.407,0.289 -0.792,0.564 -1.152,0.807 v 0 c -2.873,1.942 -3.852,5.217 -3.042,7.326 v 0 c -1.122,1.323 -1.885,3.548 -1.116,6.434 v 0 c 0.858,3.223 3.607,6.04 7.003,7.174 v 0 c 2.192,0.733 4.264,0.885 5.988,0.441 v 0 c 0.828,-0.212 1.567,-0.558 2.176,-1.014 v 0 c 0.953,0.45 2.377,0.912 3.635,0.704 v 0 c 0.029,-0.004 0.057,-0.011 0.085,-0.017 v 0 c 0,0 0.027,-0.007 0.03,-0.008 v 0 c 2.516,-0.647 3.165,-3.777 3.552,-5.646 v 0 c 0.049,-0.234 0.096,-0.459 0.139,-0.643 v 0 c 0.215,-0.154 0.462,-0.319 0.719,-0.491 v 0 c 2.06,-1.374 5.507,-3.673 4.349,-8.824 v 0 c -0.562,-2.494 -1.198,-5.323 -4.71,-6.833 v 0 c -1.297,-0.555 -2.753,-0.579 -3.817,-0.596 v 0 c -0.245,-0.005 -0.555,-0.009 -0.757,-0.024 v 0 c -0.027,-0.047 -0.056,-0.098 -0.08,-0.141 v 0 c -0.298,-0.525 -0.797,-1.406 -1.888,-1.884 v 0 c -0.815,-0.374 -1.695,-0.562 -2.627,-0.562 v 0 c -0.634,0 -1.293,0.087 -1.971,0.262" />
    </clipPath>
    <clipPath
   id="clipPath130"
   clipPathUnits="userSpaceOnUse">
      <path
   id="path128"
   d="m 67.887,184.855 c -2.733,-0.913 -5.03,-3.256 -5.715,-5.831 v 0 c -0.662,-2.485 0.097,-4.212 1.029,-4.998 v 0 c 0.398,-0.337 0.48,-0.897 0.19,-1.308 v 0 c -0.356,-0.506 -0.408,-1.432 -0.131,-2.36 v 0 c 0.346,-1.162 1.135,-2.207 2.223,-2.942 v 0 c 0.374,-0.252 0.773,-0.536 1.194,-0.835 v 0 c 1.68,-1.194 3.77,-2.68 5.792,-3.2 v 0 c 1.195,-0.308 2.234,-0.248 3.177,0.184 v 0 c 0.496,0.218 0.739,0.647 0.974,1.061 v 0 c 0.218,0.385 0.443,0.783 0.914,0.978 v 0 c 0.422,0.175 0.947,0.183 1.674,0.195 v 0 c 0.934,0.015 2.097,0.033 3.009,0.425 v 0 c 2.409,1.036 2.955,2.762 3.567,5.481 v 0 c 0.864,3.843 -1.44,5.379 -3.473,6.735 v 0 c -0.41,0.274 -0.796,0.531 -1.127,0.795 v 0 c -0.161,0.128 -0.279,0.296 -0.341,0.485 v 0 c -0.096,0.296 -0.177,0.687 -0.271,1.139 v 0 c -0.269,1.298 -0.768,3.706 -1.97,4.054 v 0 c -0.828,0.111 -2.162,-0.392 -2.824,-0.808 v 0 c -0.428,-0.269 -1.006,-0.193 -1.359,0.181 v 0 c -0.291,0.309 -0.835,0.73 -1.773,0.971 v 0 c -0.469,0.121 -0.979,0.18 -1.524,0.18 v 0 c -0.983,0 -2.077,-0.195 -3.235,-0.582 m 3.538,-18.364 c -1.423,0.366 -2.707,1.131 -3.713,2.214 v 0 c -1.348,1.448 -2.04,3.3 -2.09,5.176 v 0 0.439 c 0.055,2.055 0.879,4.102 2.455,5.645 v 0 c 2.016,1.971 4.82,2.736 7.502,2.046 v 0 c 1.423,-0.367 2.707,-1.133 3.715,-2.214 v 0 c 1.337,-1.439 2.029,-3.274 2.088,-5.136 v 0 -0.52 c -0.065,-2.041 -0.888,-4.073 -2.455,-5.604 v 0 c -1.527,-1.494 -3.507,-2.295 -5.545,-2.295 v 0 c -0.65,0 -1.307,0.082 -1.957,0.249" />
    </clipPath>
    <clipPath
   id="clipPath140"
   clipPathUnits="userSpaceOnUse">
      <path
   id="path138"
   d="m 69.757,178.399 c -2.31,-2.26 -2.458,-5.961 -0.328,-8.25 v 0 c 0.693,-0.747 1.574,-1.274 2.545,-1.524 v 0 c 1.866,-0.48 3.838,0.072 5.273,1.477 v 0 c 2.311,2.261 2.459,5.961 0.329,8.251 v 0 c -0.693,0.746 -1.574,1.273 -2.546,1.523 v 0 c -0.442,0.114 -0.892,0.169 -1.338,0.169 v 0 c -1.434,0.001 -2.839,-0.575 -3.935,-1.646" />
    </clipPath>
    <clipPath
   id="clipPath150"
   clipPathUnits="userSpaceOnUse">
      <path
   id="path148"
   d="M 27.445,67.329 C 22.777,66.875 16.984,63.607 15.443,58.444 v 0 c -0.795,-2.665 -0.654,-5.112 0.397,-6.891 v 0 c 0.67,-1.132 1.677,-1.932 2.836,-2.251 v 0 c 0.12,-0.032 0.209,-0.133 0.221,-0.251 v 0 c 0.014,-0.118 -0.051,-0.23 -0.162,-0.281 v 0 C 17.525,48.217 16.788,46.811 16.81,45.1 v 0 c 0.028,-2.13 1.27,-4.984 4.67,-6.608 v 0 c 1.06,-0.506 2.288,-1.403 3.711,-2.442 v 0 c 2.385,-1.742 5.089,-3.717 7.812,-4.417 v 0 c 0.517,-0.133 1.014,-0.214 1.495,-0.245 v 0 h 0.835 c 1.067,0.071 2.05,0.417 2.967,1.042 v 0 c 0.006,0.002 0.01,0.006 0.016,0.009 v 0 c 1.899,1.128 1.379,4 1.373,4.029 v 0 c -0.02,0.105 0.023,0.211 0.111,0.274 v 0 c 0.087,0.063 0.205,0.072 0.307,0.027 v 0 c 0.013,-0.006 1.333,-0.602 3.013,-1.035 v 0 c 1.744,-0.449 3.217,-0.562 4.377,-0.339 v 0 c 4.606,0.889 5.173,3.248 5.957,6.512 v 0 c 0.088,0.364 0.177,0.737 0.275,1.118 v 0 c 0.228,0.888 0.352,1.716 0.37,2.483 v 0 0.397 c -0.034,1.399 -0.437,2.579 -1.208,3.527 v 0 c -0.92,1.133 -2.396,1.967 -4.386,2.479 v 0 c -1.083,0.279 -2.111,0.413 -2.861,0.511 v 0 c -0.437,0.058 -0.782,0.103 -1.002,0.16 v 0 c -0.102,0.026 -0.183,0.101 -0.214,0.198 v 0 c -0.032,0.095 -0.009,0.199 0.061,0.272 v 0 c 0.604,0.634 1.764,5.956 0.808,9.007 v 0 c -0.305,0.973 -0.8,1.567 -1.471,1.763 v 0 c -1.657,0.205 -4.299,-1.483 -4.945,-2.568 v 0 c -0.068,-0.113 -0.21,-0.17 -0.339,-0.128 v 0 c -0.133,0.037 -0.224,0.155 -0.222,0.285 v 0 c 0.038,2.616 -1.965,4.762 -5.226,5.601 v 0 c -1.086,0.279 -2.295,0.419 -3.616,0.419 v 0 c -0.651,0 -1.33,-0.034 -2.033,-0.102 m 5.36,-33.669 c -2.415,0.622 -4.743,2.309 -6.796,3.799 v 0 c -1.081,0.783 -2.101,1.524 -2.919,1.93 v 0 c -3.011,1.496 -4.138,4.079 -4.187,5.998 v 0 c -0.036,1.354 0.418,2.499 1.24,3.191 v 0 c -1.002,0.504 -1.823,1.403 -2.304,2.546 v 0 c -0.653,1.55 -0.677,3.461 -0.066,5.524 v 0 c 1.341,4.546 6.198,7.41 10.303,7.891 v 0 c 1.921,0.224 3.64,0.147 5.108,-0.23 v 0 c 2.472,-0.637 4.165,-2.162 4.597,-4.078 v 0 c 1.031,0.911 2.921,1.842 4.255,1.658 v 0 c 0.017,-0.002 0.034,-0.006 0.049,-0.01 v 0 c 0.744,-0.205 1.299,-0.77 1.651,-1.679 v 0 c 0.884,-2.288 0.267,-6.181 -0.274,-7.593 v 0 c 0.155,-0.032 0.335,-0.066 0.532,-0.102 v 0 c 0.479,-0.09 1.075,-0.202 1.714,-0.365 v 0 c 3.678,-0.946 5.534,-2.951 5.543,-5.974 v 0 -0.046 c -0.002,-0.727 -0.11,-1.512 -0.325,-2.356 v 0 c -0.072,-0.286 -0.141,-0.569 -0.207,-0.845 v 0 c -0.666,-2.776 -1.241,-5.175 -5.432,-6.07 v 0 c -1.135,-0.242 -2.581,-0.141 -4.299,0.301 v 0 c -0.712,0.183 -1.325,0.388 -1.713,0.522 v 0 c 0.003,-1.601 -0.512,-2.713 -1.533,-3.309 v 0 C 36.788,33.736 35.733,33.422 34.59,33.422 v 0 c -0.574,0 -1.169,0.08 -1.785,0.238" />
    </clipPath>
    <clipPath
   id="clipPath160"
   clipPathUnits="userSpaceOnUse">
      <path
   id="path158"
   d="m 28.182,63.859 c -2.084,-0.244 -4.207,-1.094 -5.978,-2.394 v 0 c -1.886,-1.385 -3.179,-3.12 -3.74,-5.019 v 0 c -0.898,-3.035 -0.322,-6.578 2.52,-7.474 v 0 c 0.137,-0.044 0.236,-0.16 0.252,-0.298 v 0 c 0.015,-0.137 -0.056,-0.267 -0.182,-0.33 v 0 c -0.92,-0.468 -1.469,-1.601 -1.434,-2.958 v 0 c 0.045,-1.719 1.065,-4.038 3.788,-5.391 v 0 C 24.283,39.56 25.279,38.838 26.434,38 v 0 c 2,-1.45 4.265,-3.094 6.541,-3.679 v 0 c 1.657,-0.426 3.083,-0.225 4.358,0.614 v 0 c 0.005,0.004 0.011,0.008 0.016,0.01 v 0 c 0.862,0.5 1.266,1.522 1.201,3.04 v 0 c -0.008,0.181 -0.016,0.387 0.21,0.48 v 0 c 0.119,0.049 0.225,0.022 0.265,0.011 v 0 c 0.061,-0.015 0.15,-0.046 0.328,-0.108 v 0 c 0.383,-0.133 1.023,-0.356 1.805,-0.557 v 0 c 1.604,-0.412 2.934,-0.511 3.955,-0.294 v 0 c 3.762,0.805 4.242,2.804 4.906,5.571 v 0 c 0.067,0.279 0.135,0.564 0.208,0.854 v 0 c 1.019,3.997 -0.515,6.462 -4.689,7.536 v 0 c -0.614,0.159 -1.196,0.267 -1.664,0.355 v 0 c -0.445,0.083 -0.809,0.152 -1.032,0.228 v 0 c -0.106,0.037 -0.191,0.12 -0.226,0.223 v 0 c -0.036,0.102 -0.02,0.214 0.044,0.3 v 0 c 0.405,0.554 1.336,4.981 0.403,7.394 v 0 c -0.261,0.675 -0.643,1.091 -1.137,1.236 v 0 c -1.305,0.161 -3.53,-1.042 -4.094,-1.89 v 0 C 37.751,59.2 37.593,59.059 37.443,59.098 v 0 c 0,0 -0.005,10e-4 -0.007,0.002 v 0 c -0.153,0.043 -0.233,0.248 -0.239,0.398 v 0 c -0.082,1.996 -1.663,3.5 -4.183,4.149 v 0 c -0.861,0.221 -1.816,0.332 -2.859,0.332 v 0 c -0.627,0 -1.286,-0.04 -1.973,-0.12 m 4.565,-27.621 c -1.996,0.513 -3.899,1.881 -5.579,3.087 v 0 c -0.817,0.587 -1.589,1.142 -2.217,1.472 v 0 c -2.363,1.243 -3.284,3.323 -3.359,4.855 v 0 c -0.05,1.034 0.249,1.939 0.819,2.539 v 0 c -1.574,0.964 -2.68,3.245 -1.732,6.491 v 0 c 1.053,3.634 4.87,6.019 8.097,6.498 v 0 c 0.637,0.095 1.247,0.146 1.829,0.156 v 0 h 0.386 c 0.772,-0.013 1.49,-0.104 2.148,-0.274 v 0 c 1.777,-0.457 3.045,-1.483 3.529,-2.815 v 0 c 0.883,0.681 2.348,1.336 3.418,1.183 v 0 c 0.018,-0.003 0.035,-0.007 0.053,-0.011 v 0 c 0.586,-0.159 1.047,-0.563 1.37,-1.202 v 0 c 0.871,-1.723 0.52,-4.841 0.207,-6.067 v 0 c 0.153,-0.045 0.333,-0.093 0.527,-0.145 v 0 c 1.089,-0.291 2.735,-0.73 3.957,-1.793 v 0 c 1.491,-1.297 1.942,-3.167 1.342,-5.558 v 0 c -0.048,-0.191 -0.093,-0.381 -0.138,-0.568 v 0 c -0.562,-2.353 -1.047,-4.385 -4.452,-5.222 v 0 c -1.055,-0.259 -2.422,-0.165 -4.181,0.287 v 0 c -0.184,0.048 -0.349,0.093 -0.491,0.131 v 0 c -0.027,0.008 -0.054,0.015 -0.079,0.022 v 0 C 38.146,38.63 37.963,37.402 36.833,36.766 v 0 C 36.05,36.28 35.189,36.037 34.261,36.037 v 0 c -0.487,0 -0.992,0.067 -1.514,0.201" />
    </clipPath>
    <clipPath
   id="clipPath170"
   clipPathUnits="userSpaceOnUse">
      <path
   id="path168"
   d="m 28.925,60.39 c -2.968,-0.44 -6.476,-2.623 -7.437,-5.941 v 0 c -0.927,-3.164 0.292,-5.232 1.816,-5.814 v 0 c 0.148,-0.057 0.253,-0.186 0.27,-0.337 v 0 c 0.017,-0.15 -0.056,-0.295 -0.188,-0.374 v 0 c -0.649,-0.386 -1.007,-1.229 -0.957,-2.256 v 0 c 0.064,-1.311 0.862,-3.095 2.911,-4.173 v 0 c 0.683,-0.359 1.478,-0.931 2.321,-1.536 v 0 c 1.617,-1.162 3.449,-2.478 5.284,-2.95 v 0 c 1.3,-0.334 2.42,-0.192 3.424,0.435 v 0 c 0.006,0.003 0.012,0.006 0.018,0.01 v 0 c 0.882,0.492 0.956,1.584 0.991,2.108 v 0 c 0.018,0.263 0.032,0.489 0.283,0.593 v 0 c 0.158,0.066 0.31,0.032 0.544,-0.029 v 0 c 0.08,-0.02 0.176,-0.046 0.284,-0.075 v 0 c 0.14,-0.038 0.301,-0.082 0.481,-0.129 v 0 c 0.593,-0.152 2.398,-0.616 3.753,-0.284 v 0 c 2.927,0.719 3.32,2.366 3.864,4.645 v 0 c 0.045,0.189 0.091,0.38 0.139,0.576 v 0 c 1.207,4.804 -2.484,5.789 -4.689,6.376 v 0 c -0.432,0.115 -0.773,0.206 -1.01,0.315 v 0 c -0.209,0.095 -0.304,0.331 -0.212,0.529 v 0 c 0.266,0.575 0.802,4.105 -0.058,5.806 v 0 c -0.208,0.412 -0.47,0.66 -0.801,0.758 v 0 c -1.012,0.123 -2.801,-0.691 -3.292,-1.324 v 0 c -0.1,-0.129 -0.272,-0.288 -0.436,-0.245 v 0 c 0,0 -0.003,0 -0.005,0.001 v 0 c -0.166,0.044 -0.173,0.277 -0.195,0.439 v 0 c -0.181,1.351 -1.34,2.328 -3.088,2.777 v 0 c -0.64,0.165 -1.348,0.247 -2.119,0.247 v 0 c -0.595,0 -1.229,-0.049 -1.896,-0.148 m 3.757,-21.574 c -1.589,0.409 -3.144,1.512 -4.393,2.399 v 0 c -0.543,0.385 -1.056,0.748 -1.486,0.996 v 0 c -1.441,0.829 -2.383,2.2 -2.52,3.67 v 0 c -0.069,0.743 0.09,1.425 0.435,1.922 v 0 c -0.789,0.624 -1.374,1.704 -1.387,3.132 v 0 0.1 c 0.005,0.516 0.083,1.078 0.254,1.678 v 0 c 0.691,2.44 3.107,4.54 5.876,5.105 v 0 c 1.378,0.282 2.607,0.288 3.653,0.019 v 0 c 1.09,-0.28 1.935,-0.856 2.405,-1.62 v 0 c 0.686,0.444 1.747,0.884 2.618,0.754 v 0 c 0.019,-0.003 0.037,-0.006 0.054,-0.012 v 0 c 2.001,-0.525 1.875,-4.001 1.76,-5.268 v 0 c 0.14,-0.063 0.309,-0.129 0.491,-0.202 v 0 c 1.408,-0.561 3.856,-1.536 3.905,-4.371 v 0 -0.173 C 44.339,46.521 44.28,46.057 44.158,45.547 v 0 l -0.07,-0.289 C 43.649,43.413 43.235,41.671 40.63,40.883 v 0 c -1.124,-0.339 -2.465,-0.112 -3.267,0.024 v 0 c -0.083,0.014 -0.174,0.03 -0.258,0.042 v 0 c -0.106,-0.463 -0.334,-1.334 -1.191,-1.784 v 0 C 35.306,38.822 34.643,38.65 33.934,38.65 v 0 c -0.404,0 -0.821,0.055 -1.252,0.166" />
    </clipPath>
    <clipPath
   id="clipPath180"
   clipPathUnits="userSpaceOnUse">
      <path
   id="path178"
   d="M 29.684,56.925 C 27.281,56.434 25.105,54.553 24.51,52.453 v 0 c -0.614,-2.166 0.131,-3.654 1.142,-4.168 v 0 c 0.143,-0.072 0.24,-0.208 0.259,-0.361 v 0 c 0.019,-0.152 -0.044,-0.301 -0.167,-0.398 v 0 c -0.383,-0.297 -0.572,-0.891 -0.508,-1.587 v 0 c 0.11,-1.173 0.874,-2.276 2.046,-2.95 v 0 c 0.471,-0.27 1.002,-0.648 1.565,-1.046 v 0 c 1.244,-0.883 2.654,-1.883 4.062,-2.246 v 0 c 0.949,-0.244 1.769,-0.159 2.507,0.26 v 0 c 0.004,0.003 0.01,0.006 0.015,0.008 v 0 c 0.529,0.276 0.663,0.866 0.752,1.258 v 0 c 0.062,0.275 0.116,0.514 0.38,0.623 v 0 c 0.206,0.085 0.437,0.045 0.944,-0.04 v 0 c 0.714,-0.121 1.911,-0.324 2.812,-0.052 v 0 c 2.1,0.635 2.408,1.933 2.835,3.728 v 0 l 0.07,0.292 c 0.798,3.308 -1.567,4.25 -3.131,4.874 v 0 c -0.359,0.143 -0.669,0.266 -0.898,0.403 v 0 c -0.16,0.096 -0.25,0.271 -0.229,0.448 v 0 c 0.192,1.606 0.092,4.251 -0.981,4.574 v 0 c -0.688,0.083 -2.025,-0.315 -2.446,-0.738 v 0 c -0.116,-0.117 -0.244,-0.31 -0.41,-0.27 v 0 c -0.169,0.038 -0.131,0.307 -0.182,0.464 v 0 c -0.244,0.748 -1.032,1.162 -2.059,1.427 v 0 c -0.43,0.11 -0.901,0.165 -1.411,0.165 v 0 c -0.553,0 -1.152,-0.066 -1.793,-0.196 m 2.91,-15.529 c -1.248,0.321 -2.421,1.155 -3.364,1.826 v 0 c -0.209,0.148 -0.408,0.29 -0.595,0.415 v 0 c -1.482,1.003 -1.988,2.693 -1.57,3.782 v 0 c -0.578,0.683 -0.972,1.832 -0.575,3.321 v 0 c 0.442,1.663 1.861,3.118 3.614,3.703 v 0 c 1.131,0.378 2.201,0.457 3.091,0.228 v 0 c 0.427,-0.11 0.809,-0.288 1.123,-0.523 v 0 c 0.491,0.232 1.228,0.469 1.876,0.362 v 0 c 0.015,-0.002 0.03,-0.005 0.044,-0.009 v 0 c 0,0 0.014,-0.002 0.016,-0.003 v 0 c 1.299,-0.334 1.633,-1.95 1.833,-2.915 v 0 c 0.025,-0.12 0.05,-0.236 0.072,-0.332 v 0 c 0.111,-0.079 0.239,-0.164 0.371,-0.252 v 0 c 1.064,-0.71 2.843,-1.897 2.245,-4.555 v 0 c -0.29,-1.288 -0.619,-2.748 -2.431,-3.527 v 0 c -0.67,-0.288 -1.421,-0.299 -1.97,-0.308 v 0 c -0.127,-0.002 -0.287,-0.005 -0.391,-0.013 v 0 c -0.014,-0.023 -0.029,-0.049 -0.042,-0.072 v 0 C 35.788,42.252 35.53,41.799 34.967,41.551 v 0 c -0.421,-0.192 -0.875,-0.29 -1.356,-0.29 v 0 c -0.327,0 -0.667,0.045 -1.017,0.135" />
    </clipPath>
    <clipPath
   id="clipPath190"
   clipPathUnits="userSpaceOnUse">
      <path
   id="path188"
   d="m 30.484,53.473 c -1.411,-0.472 -2.597,-1.682 -2.95,-3.01 v 0 c -0.342,-1.283 0.05,-2.174 0.531,-2.58 v 0 c 0.206,-0.174 0.247,-0.463 0.098,-0.675 v 0 c -0.184,-0.261 -0.211,-0.74 -0.068,-1.219 v 0 c 0.178,-0.599 0.586,-1.138 1.148,-1.518 v 0 c 0.192,-0.131 0.398,-0.277 0.616,-0.431 v 0 c 0.867,-0.617 1.946,-1.384 2.989,-1.652 v 0 c 0.618,-0.159 1.154,-0.128 1.64,0.095 v 0 c 0.257,0.113 0.382,0.334 0.503,0.548 v 0 c 0.113,0.199 0.229,0.404 0.472,0.505 v 0 c 0.218,0.09 0.489,0.094 0.864,0.101 v 0 c 0.482,0.007 1.082,0.017 1.553,0.218 v 0 c 1.244,0.535 1.526,1.426 1.841,2.83 v 0 c 0.446,1.982 -0.743,2.776 -1.792,3.476 v 0 c -0.212,0.141 -0.412,0.274 -0.583,0.41 v 0 c -0.082,0.067 -0.144,0.153 -0.175,0.251 v 0 c -0.05,0.152 -0.092,0.354 -0.14,0.588 v 0 c -0.139,0.669 -0.396,1.912 -1.017,2.091 v 0 C 35.587,53.559 34.898,53.3 34.556,53.085 v 0 c -0.22,-0.139 -0.519,-0.099 -0.701,0.093 v 0 c -0.15,0.16 -0.431,0.377 -0.915,0.502 v 0 c -0.242,0.062 -0.505,0.092 -0.787,0.092 v 0 c -0.507,0 -1.072,-0.1 -1.669,-0.299 m 1.826,-9.48 c -0.734,0.189 -1.398,0.584 -1.917,1.143 v 0 c -0.696,0.748 -1.053,1.704 -1.078,2.671 v 0 0.227 c 0.028,1.061 0.453,2.118 1.267,2.914 v 0 c 1.04,1.017 2.488,1.412 3.872,1.056 v 0 c 0.734,-0.189 1.398,-0.584 1.917,-1.143 v 0 c 0.69,-0.742 1.047,-1.689 1.078,-2.651 v 0 -0.268 C 37.416,46.888 36.991,45.84 36.182,45.049 v 0 C 35.393,44.278 34.371,43.864 33.32,43.864 v 0 c -0.336,0 -0.675,0.042 -1.01,0.129" />
    </clipPath>
    <clipPath
   id="clipPath200"
   clipPathUnits="userSpaceOnUse">
      <path
   id="path198"
   d="m 31.449,50.14 c -1.193,-1.167 -1.269,-3.077 -0.17,-4.259 v 0 c 0.358,-0.385 0.812,-0.657 1.315,-0.787 v 0 c 0.963,-0.247 1.98,0.038 2.721,0.763 v 0 c 1.193,1.167 1.269,3.077 0.169,4.259 v 0 c -0.357,0.386 -0.811,0.657 -1.314,0.786 v 0 c -0.228,0.059 -0.46,0.088 -0.69,0.088 v 0 c -0.74,0 -1.466,-0.297 -2.031,-0.85" />
    </clipPath>
    <clipPath
   id="clipPath222"
   clipPathUnits="userSpaceOnUse">
      <path
   id="path220"
   d="m 116.492,52.621 h 7.87 v 5.741 h -7.87 z" />
    </clipPath>
    <clipPath
   id="clipPath236"
   clipPathUnits="userSpaceOnUse">
      <path
   id="path234"
   d="m 111.06,52.621 h 2.963 v 5.741 h -2.963 z" />
    </clipPath>
    <clipPath
   id="clipPath250"
   clipPathUnits="userSpaceOnUse">
      <path
   id="path248"
   d="m 79.145,52.621 h 2.964 v 5.741 h -2.964 z" />
    </clipPath>
    <clipPath
   id="clipPath264"
   clipPathUnits="userSpaceOnUse">
      <path
   id="path262"
   d="m 126.091,40.43 h 11.914 v 12.191 h -11.914 z" />
    </clipPath>
    <clipPath
   id="clipPath278"
   clipPathUnits="userSpaceOnUse">
      <path
   id="path276"
   d="m 116.492,40.43 h 7.87 v 12.191 h -7.87 z" />
    </clipPath>
    <clipPath
   id="clipPath292"
   clipPathUnits="userSpaceOnUse">
      <path
   id="path290"
   d="m 111.06,40.43 h 2.963 v 12.191 h -2.963 z" />
    </clipPath>
    <clipPath
   id="clipPath306"
   clipPathUnits="userSpaceOnUse">
      <path
   id="path304"
   d="m 98.93,40.43 h 9.352 V 52.621 H 98.93 Z" />
    </clipPath>
    <clipPath
   id="clipPath320"
   clipPathUnits="userSpaceOnUse">
      <path
   id="path318"
   d="M 85.627,40.43 H 96.214 V 52.621 H 85.627 Z" />
    </clipPath>
    <clipPath
   id="clipPath334"
   clipPathUnits="userSpaceOnUse">
      <path
   id="path332"
   d="m 79.145,40.43 h 2.964 v 12.191 h -2.964 z" />
    </clipPath>
    <clipPath
   id="clipPath348"
   clipPathUnits="userSpaceOnUse">
      <path
   id="path346"
   d="M 64.423,40.43 H 76.337 V 52.621 H 64.423 Z" />
    </clipPath>
    <clipPath
   id="clipPath362"
   clipPathUnits="userSpaceOnUse">
      <path
   id="path360"
   d="M 0,240.94 H 311.449 V 0 H 0 Z" />
    </clipPath>
    <clipPath
   id="clipPath394"
   clipPathUnits="userSpaceOnUse">
      <path
   id="path392"
   d="m 185.603,68.26 c -4.668,-0.454 -10.461,-3.722 -12.002,-8.885 v 0 c -0.796,-2.665 -0.654,-5.112 0.397,-6.891 v 0 c 0.669,-1.133 1.677,-1.932 2.836,-2.25 v 0 c 0.12,-0.034 0.209,-0.134 0.221,-0.252 v 0 c 0.014,-0.118 -0.051,-0.23 -0.162,-0.281 v 0 c -1.21,-0.553 -1.947,-1.96 -1.925,-3.67 v 0 c 0.028,-2.13 1.27,-4.985 4.67,-6.608 v 0 c 1.059,-0.506 2.288,-1.403 3.711,-2.442 v 0 c 2.385,-1.742 5.088,-3.717 7.812,-4.417 v 0 c 0.516,-0.133 1.014,-0.214 1.495,-0.245 v 0 h 0.835 c 1.067,0.07 2.05,0.417 2.967,1.041 v 0 c 0.006,0.003 0.01,0.007 0.016,0.009 v 0 c 1.899,1.129 1.378,4.001 1.373,4.03 v 0 c -0.02,0.105 0.022,0.21 0.111,0.273 v 0 c 0.087,0.063 0.205,0.074 0.307,0.028 v 0 c 0.013,-0.006 1.333,-0.603 3.013,-1.035 v 0 c 1.744,-0.448 3.216,-0.562 4.376,-0.338 v 0 c 4.607,0.888 5.174,3.247 5.958,6.51 v 0 c 0.088,0.365 0.177,0.737 0.275,1.118 v 0 c 0.228,0.888 0.351,1.717 0.37,2.484 v 0 0.397 c -0.034,1.399 -0.438,2.579 -1.208,3.527 v 0 c -0.921,1.132 -2.396,1.968 -4.387,2.479 v 0 c -1.082,0.279 -2.11,0.414 -2.86,0.511 v 0 c -0.437,0.058 -0.782,0.103 -1.002,0.159 v 0 c -0.102,0.026 -0.183,0.102 -0.215,0.198 v 0 c -0.031,0.097 -0.008,0.2 0.062,0.273 v 0 c 0.604,0.634 1.764,5.956 0.808,9.006 v 0 c -0.305,0.974 -0.8,1.567 -1.472,1.763 v 0 c -1.657,0.206 -4.298,-1.481 -4.944,-2.567 v 0 c -0.068,-0.113 -0.21,-0.171 -0.34,-0.128 v 0 c -0.132,0.037 -0.223,0.155 -0.221,0.285 v 0 c 0.038,2.616 -1.965,4.762 -5.226,5.601 v 0 c -1.086,0.279 -2.295,0.418 -3.616,0.418 v 0 c -0.651,0 -1.33,-0.033 -2.033,-0.101 m 5.36,-33.669 c -2.415,0.621 -4.742,2.309 -6.796,3.798 v 0 c -1.081,0.784 -2.101,1.524 -2.92,1.931 v 0 c -3.01,1.496 -4.137,4.079 -4.186,5.998 v 0 c -0.036,1.353 0.418,2.499 1.24,3.191 v 0 c -1.002,0.504 -1.823,1.402 -2.304,2.545 v 0 c -0.654,1.552 -0.677,3.462 -0.066,5.524 v 0 c 1.341,4.546 6.198,7.411 10.303,7.892 v 0 c 1.921,0.225 3.64,0.146 5.108,-0.231 v 0 c 2.472,-0.636 4.165,-2.162 4.597,-4.078 v 0 c 1.03,0.913 2.92,1.843 4.255,1.659 v 0 c 0.016,-0.003 0.033,-0.006 0.049,-0.011 v 0 c 0.744,-0.204 1.299,-0.768 1.65,-1.678 v 0 c 0.885,-2.288 0.268,-6.181 -0.273,-7.594 v 0 c 0.155,-0.031 0.335,-0.064 0.532,-0.101 v 0 c 0.478,-0.09 1.075,-0.201 1.714,-0.366 v 0 c 3.678,-0.946 5.534,-2.951 5.543,-5.973 v 0 -0.046 c -0.002,-0.727 -0.11,-1.512 -0.326,-2.356 v 0 c -0.072,-0.286 -0.14,-0.569 -0.207,-0.845 v 0 c -0.665,-2.777 -1.24,-5.174 -5.431,-6.07 v 0 c -1.135,-0.243 -2.581,-0.141 -4.299,0.301 v 0 c -0.712,0.183 -1.325,0.388 -1.713,0.522 v 0 c 0.003,-1.601 -0.512,-2.714 -1.533,-3.309 v 0 c -0.955,-0.627 -2.009,-0.941 -3.152,-0.941 v 0 c -0.574,0 -1.17,0.079 -1.785,0.238" />
    </clipPath>
    <clipPath
   id="clipPath404"
   clipPathUnits="userSpaceOnUse">
      <path
   id="path402"
   d="m 186.34,64.789 c -2.084,-0.244 -4.207,-1.093 -5.978,-2.393 v 0 c -1.886,-1.384 -3.179,-3.12 -3.74,-5.019 v 0 c -0.898,-3.036 -0.322,-6.578 2.519,-7.475 v 0 c 0.138,-0.043 0.237,-0.16 0.252,-0.297 v 0 c 0.016,-0.136 -0.055,-0.267 -0.181,-0.331 v 0 c -0.92,-0.467 -1.469,-1.6 -1.434,-2.956 v 0 c 0.045,-1.719 1.065,-4.039 3.788,-5.392 v 0 c 0.875,-0.435 1.872,-1.158 3.026,-1.996 v 0 c 2,-1.45 4.265,-3.092 6.541,-3.678 v 0 c 1.657,-0.426 3.082,-0.226 4.358,0.614 v 0 c 0.005,0.004 0.011,0.007 0.016,0.01 v 0 c 0.862,0.499 1.266,1.522 1.201,3.04 v 0 c -0.008,0.181 -0.017,0.386 0.21,0.48 v 0 c 0.119,0.049 0.225,0.021 0.265,0.011 v 0 c 0.061,-0.016 0.15,-0.046 0.328,-0.108 v 0 c 0.383,-0.134 1.023,-0.356 1.805,-0.558 v 0 c 1.604,-0.412 2.934,-0.511 3.955,-0.293 v 0 c 3.762,0.805 4.242,2.803 4.906,5.571 v 0 c 0.067,0.279 0.135,0.564 0.208,0.854 v 0 c 1.019,3.997 -0.515,6.462 -4.689,7.536 v 0 c -0.614,0.158 -1.196,0.267 -1.664,0.354 v 0 c -0.445,0.083 -0.809,0.152 -1.032,0.23 v 0 c -0.107,0.037 -0.191,0.119 -0.226,0.221 v 0 c -0.036,0.103 -0.02,0.214 0.044,0.302 v 0 c 0.405,0.552 1.336,4.979 0.403,7.392 v 0 c -0.261,0.675 -0.643,1.092 -1.137,1.237 v 0 c -1.305,0.16 -3.53,-1.041 -4.094,-1.891 v 0 c -0.082,-0.123 -0.239,-0.264 -0.389,-0.225 v 0 c 0,0 -0.005,10e-4 -0.008,0.002 v 0 c -0.152,0.042 -0.232,0.247 -0.238,0.398 v 0 c -0.082,1.996 -1.663,3.501 -4.183,4.149 v 0 c -0.861,0.221 -1.817,0.332 -2.859,0.332 v 0 c -0.627,0 -1.286,-0.041 -1.973,-0.121 m 4.565,-27.62 c -1.996,0.513 -3.899,1.88 -5.579,3.087 v 0 c -0.817,0.587 -1.589,1.141 -2.217,1.472 v 0 c -2.363,1.243 -3.285,3.322 -3.358,4.854 v 0 c -0.051,1.035 0.248,1.94 0.818,2.539 v 0 c -1.574,0.965 -2.68,3.246 -1.732,6.492 v 0 c 1.053,3.633 4.87,6.019 8.097,6.498 v 0 c 0.637,0.094 1.247,0.147 1.828,0.155 v 0 h 0.386 c 0.773,-0.012 1.491,-0.103 2.149,-0.272 v 0 c 1.777,-0.458 3.045,-1.484 3.529,-2.816 v 0 c 0.883,0.681 2.348,1.335 3.418,1.183 v 0 c 0.018,-0.002 0.035,-0.006 0.053,-0.011 v 0 c 0.586,-0.159 1.047,-0.563 1.37,-1.202 v 0 c 0.871,-1.724 0.52,-4.84 0.207,-6.068 v 0 c 0.153,-0.045 0.333,-0.092 0.527,-0.145 v 0 c 1.089,-0.289 2.735,-0.729 3.957,-1.792 v 0 c 1.491,-1.297 1.942,-3.168 1.341,-5.558 v 0 c -0.047,-0.191 -0.092,-0.382 -0.137,-0.569 v 0 C 205,42.664 204.515,40.631 201.109,39.794 v 0 c -1.054,-0.259 -2.421,-0.164 -4.18,0.288 v 0 c -0.184,0.047 -0.349,0.092 -0.491,0.131 v 0 c -0.027,0.007 -0.054,0.014 -0.08,0.021 v 0 c -0.055,-0.674 -0.237,-1.901 -1.368,-2.537 v 0 c -0.782,-0.487 -1.642,-0.73 -2.569,-0.73 v 0 c -0.488,0 -0.993,0.068 -1.516,0.202" />
    </clipPath>
    <clipPath
   id="clipPath414"
   clipPathUnits="userSpaceOnUse">
      <path
   id="path412"
   d="m 187.083,61.321 c -2.968,-0.44 -6.476,-2.622 -7.438,-5.94 v 0 c -0.926,-3.166 0.293,-5.233 1.817,-5.814 v 0 c 0.148,-0.057 0.252,-0.188 0.27,-0.338 v 0 c 0.017,-0.15 -0.056,-0.295 -0.188,-0.373 v 0 c -0.649,-0.387 -1.007,-1.231 -0.957,-2.258 v 0 c 0.064,-1.31 0.862,-3.095 2.911,-4.173 v 0 c 0.682,-0.358 1.479,-0.93 2.321,-1.535 v 0 c 1.617,-1.162 3.449,-2.478 5.284,-2.951 v 0 c 1.3,-0.333 2.419,-0.191 3.424,0.435 v 0 c 0.006,0.004 0.012,0.007 0.018,0.01 v 0 c 0.882,0.492 0.956,1.584 0.991,2.11 v 0 c 0.018,0.262 0.032,0.488 0.282,0.592 v 0 c 0.159,0.066 0.311,0.031 0.545,-0.029 v 0 c 0.08,-0.021 0.175,-0.046 0.284,-0.075 v 0 c 0.14,-0.038 0.301,-0.082 0.481,-0.129 v 0 c 0.593,-0.152 2.398,-0.617 3.753,-0.285 v 0 c 2.927,0.72 3.32,2.366 3.864,4.645 v 0 c 0.045,0.189 0.09,0.381 0.139,0.576 v 0 c 1.207,4.805 -2.484,5.789 -4.689,6.378 v 0 c -0.432,0.115 -0.773,0.205 -1.011,0.314 v 0 c -0.208,0.095 -0.303,0.33 -0.211,0.528 v 0 c 0.265,0.576 0.802,4.106 -0.059,5.808 v 0 c -0.208,0.411 -0.469,0.659 -0.8,0.757 v 0 c -1.012,0.123 -2.801,-0.691 -3.292,-1.324 v 0 c -0.1,-0.129 -0.272,-0.288 -0.436,-0.245 v 0 c 0,0 -0.003,10e-4 -0.005,10e-4 v 0 c -0.166,0.044 -0.173,0.276 -0.195,0.439 v 0 c -0.181,1.35 -1.34,2.328 -3.088,2.778 v 0 c -0.639,0.164 -1.347,0.246 -2.117,0.246 v 0 c -0.597,0 -1.23,-0.049 -1.898,-0.148 m 3.757,-21.574 c -1.589,0.408 -3.144,1.512 -4.393,2.399 v 0 c -0.543,0.384 -1.056,0.748 -1.485,0.995 v 0 c -1.442,0.829 -2.384,2.202 -2.521,3.672 v 0 c -0.07,0.742 0.09,1.423 0.435,1.922 v 0 c -0.789,0.624 -1.374,1.703 -1.387,3.13 v 0 0.1 c 0.005,0.517 0.083,1.078 0.254,1.679 v 0 c 0.691,2.439 3.107,4.539 5.875,5.104 v 0 c 1.378,0.282 2.608,0.288 3.654,0.019 v 0 c 1.089,-0.28 1.935,-0.855 2.405,-1.619 v 0 c 0.686,0.444 1.747,0.884 2.618,0.754 v 0 c 0.018,-0.003 0.037,-0.006 0.054,-0.011 v 0 c 2.001,-0.526 1.875,-4.003 1.76,-5.27 v 0 c 0.14,-0.062 0.309,-0.128 0.491,-0.201 v 0 c 1.408,-0.561 3.856,-1.537 3.905,-4.371 v 0 -0.173 c -0.008,-0.424 -0.067,-0.889 -0.19,-1.398 v 0 l -0.069,-0.289 c -0.439,-1.845 -0.853,-3.587 -3.459,-4.376 v 0 c -1.123,-0.338 -2.465,-0.111 -3.266,0.024 v 0 c -0.083,0.015 -0.174,0.03 -0.258,0.044 v 0 c -0.106,-0.465 -0.334,-1.335 -1.191,-1.785 v 0 c -0.608,-0.344 -1.271,-0.516 -1.981,-0.516 v 0 c -0.403,0 -0.82,0.056 -1.251,0.167" />
    </clipPath>
    <clipPath
   id="clipPath424"
   clipPathUnits="userSpaceOnUse">
      <path
   id="path422"
   d="m 187.842,57.856 c -2.403,-0.492 -4.58,-2.372 -5.174,-4.472 v 0 c -0.614,-2.167 0.131,-3.654 1.142,-4.167 v 0 c 0.143,-0.073 0.24,-0.209 0.259,-0.362 v 0 c 0.019,-0.152 -0.044,-0.302 -0.168,-0.398 v 0 c -0.382,-0.297 -0.571,-0.891 -0.507,-1.588 v 0 c 0.11,-1.172 0.874,-2.275 2.046,-2.949 v 0 c 0.471,-0.271 1.002,-0.647 1.565,-1.047 v 0 c 1.243,-0.882 2.654,-1.883 4.061,-2.244 v 0 c 0.95,-0.245 1.77,-0.16 2.508,0.259 v 0 c 0.004,0.003 0.01,0.005 0.015,0.008 v 0 c 0.529,0.275 0.663,0.867 0.752,1.257 v 0 c 0.062,0.276 0.116,0.514 0.379,0.623 v 0 c 0.206,0.086 0.438,0.047 0.944,-0.04 v 0 c 0.715,-0.12 1.912,-0.323 2.813,-0.051 v 0 c 2.1,0.635 2.408,1.933 2.835,3.728 v 0 l 0.07,0.292 c 0.798,3.308 -1.567,4.249 -3.131,4.873 v 0 c -0.359,0.143 -0.67,0.266 -0.898,0.404 v 0 c -0.16,0.097 -0.25,0.271 -0.229,0.448 v 0 c 0.192,1.605 0.092,4.25 -0.981,4.573 v 0 c -0.688,0.084 -2.026,-0.315 -2.446,-0.738 v 0 c -0.116,-0.117 -0.244,-0.309 -0.41,-0.269 v 0 c -0.169,0.037 -0.131,0.307 -0.182,0.464 v 0 c -0.244,0.748 -1.032,1.162 -2.059,1.426 v 0 c -0.431,0.111 -0.901,0.166 -1.411,0.166 v 0 c -0.553,0 -1.153,-0.066 -1.793,-0.196 m 2.909,-15.529 c -1.247,0.321 -2.42,1.155 -3.363,1.825 v 0 c -0.21,0.15 -0.409,0.291 -0.595,0.417 v 0 c -1.482,1.002 -1.988,2.693 -1.57,3.781 v 0 c -0.578,0.683 -0.972,1.831 -0.575,3.321 v 0 c 0.442,1.664 1.861,3.117 3.614,3.702 v 0 c 1.131,0.379 2.2,0.458 3.091,0.229 v 0 c 0.427,-0.11 0.809,-0.289 1.124,-0.524 v 0 c 0.49,0.232 1.226,0.471 1.875,0.363 v 0 c 0.015,-0.002 0.03,-0.005 0.044,-0.009 v 0 c 0,0 0.014,-0.003 0.016,-0.004 v 0 c 1.298,-0.334 1.633,-1.949 1.833,-2.914 v 0 c 0.025,-0.121 0.049,-0.237 0.072,-0.332 v 0 c 0.111,-0.079 0.238,-0.165 0.371,-0.253 v 0 c 1.064,-0.709 2.843,-1.896 2.244,-4.554 v 0 c -0.289,-1.289 -0.618,-2.749 -2.431,-3.528 v 0 c -0.669,-0.287 -1.421,-0.299 -1.97,-0.307 v 0 c -0.127,-0.002 -0.286,-0.005 -0.39,-0.013 v 0 c -0.015,-0.024 -0.029,-0.05 -0.042,-0.072 v 0 c -0.154,-0.271 -0.411,-0.726 -0.974,-0.973 v 0 c -0.422,-0.193 -0.875,-0.29 -1.357,-0.29 v 0 c -0.326,0 -0.666,0.045 -1.017,0.135" />
    </clipPath>
    <clipPath
   id="clipPath434"
   clipPathUnits="userSpaceOnUse">
      <path
   id="path432"
   d="m 188.642,54.403 c -1.411,-0.471 -2.597,-1.681 -2.95,-3.009 v 0 c -0.342,-1.284 0.05,-2.175 0.531,-2.581 v 0 c 0.206,-0.173 0.247,-0.462 0.098,-0.675 v 0 c -0.184,-0.261 -0.211,-0.74 -0.068,-1.218 v 0 c 0.178,-0.6 0.586,-1.139 1.148,-1.519 v 0 c 0.192,-0.13 0.398,-0.276 0.616,-0.431 v 0 c 0.867,-0.616 1.946,-1.383 2.989,-1.651 v 0 c 0.618,-0.159 1.154,-0.128 1.64,0.095 v 0 c 0.256,0.113 0.381,0.333 0.503,0.547 v 0 c 0.112,0.199 0.229,0.404 0.472,0.505 v 0 c 0.218,0.09 0.489,0.095 0.864,0.101 v 0 c 0.482,0.007 1.082,0.017 1.553,0.219 v 0 c 1.244,0.534 1.525,1.425 1.841,2.829 v 0 c 0.446,1.983 -0.743,2.777 -1.792,3.477 v 0 c -0.212,0.14 -0.412,0.274 -0.583,0.411 v 0 c -0.083,0.065 -0.144,0.152 -0.175,0.25 v 0 c -0.05,0.152 -0.092,0.354 -0.14,0.587 v 0 c -0.139,0.671 -0.397,1.913 -1.017,2.093 v 0 c -0.427,0.057 -1.117,-0.203 -1.458,-0.418 v 0 c -0.22,-0.138 -0.519,-0.099 -0.701,0.094 v 0 c -0.15,0.16 -0.431,0.377 -0.915,0.501 v 0 c -0.242,0.062 -0.505,0.093 -0.787,0.093 v 0 c -0.507,0 -1.072,-0.101 -1.669,-0.3 m 1.826,-9.479 c -0.735,0.189 -1.398,0.584 -1.917,1.142 v 0 c -0.696,0.748 -1.053,1.704 -1.078,2.673 v 0 0.226 c 0.028,1.061 0.452,2.118 1.267,2.914 v 0 c 1.04,1.017 2.487,1.412 3.872,1.055 v 0 c 0.734,-0.189 1.397,-0.584 1.917,-1.142 v 0 c 0.69,-0.742 1.047,-1.69 1.078,-2.651 v 0 -0.268 c -0.033,-1.054 -0.458,-2.103 -1.267,-2.893 v 0 c -0.789,-0.771 -1.81,-1.184 -2.861,-1.184 v 0 c -0.336,0 -0.675,0.042 -1.011,0.128" />
    </clipPath>
    <clipPath
   id="clipPath444"
   clipPathUnits="userSpaceOnUse">
      <path
   id="path442"
   d="m 189.607,51.07 c -1.193,-1.166 -1.268,-3.077 -0.17,-4.258 v 0 c 0.358,-0.386 0.812,-0.657 1.314,-0.786 v 0 c 0.963,-0.248 1.98,0.037 2.722,0.762 v 0 c 1.192,1.167 1.269,3.077 0.169,4.259 v 0 c -0.357,0.385 -0.812,0.657 -1.313,0.786 v 0 c -0.229,0.058 -0.461,0.087 -0.691,0.087 v 0 c -0.74,0 -1.466,-0.296 -2.031,-0.85" />
    </clipPath>
    <clipPath
   id="clipPath454"
   clipPathUnits="userSpaceOnUse">
      <path
   id="path452"
   d="M 0,240.94 H 311.449 V 0 H 0 Z" />
    </clipPath>
    <clipPath
   id="clipPath486"
   clipPathUnits="userSpaceOnUse">
      <path
   id="path484"
   d="m 224.591,219.463 c -9.38,-0.912 -21.021,-7.477 -24.117,-17.851 v 0 c -1.597,-5.354 -1.314,-10.272 0.798,-13.847 v 0 c 1.346,-2.276 3.369,-3.882 5.698,-4.521 v 0 c 0.242,-0.068 0.42,-0.269 0.446,-0.506 v 0 c 0.027,-0.238 -0.104,-0.462 -0.327,-0.565 v 0 c -2.431,-1.11 -3.913,-3.936 -3.867,-7.374 v 0 c 0.056,-4.28 2.55,-10.014 9.383,-13.277 v 0 c 2.13,-1.016 4.597,-2.819 7.456,-4.907 v 0 c 4.793,-3.5 10.226,-7.467 15.697,-8.875 v 0 c 1.036,-0.266 2.034,-0.43 2.999,-0.491 v 0 h 1.686 c 2.143,0.142 4.117,0.837 5.959,2.092 v 0 c 0.01,0.006 0.02,0.012 0.031,0.018 v 0 c 3.815,2.268 2.771,8.038 2.76,8.096 v 0 c -0.04,0.211 0.045,0.422 0.221,0.549 v 0 c 0.176,0.128 0.413,0.148 0.618,0.056 v 0 c 0.026,-0.012 2.678,-1.211 6.053,-2.078 v 0 c 3.505,-0.902 6.464,-1.132 8.795,-0.682 v 0 c 9.255,1.787 10.394,6.525 11.97,13.084 v 0 c 0.175,0.731 0.355,1.48 0.552,2.245 v 0 c 0.461,1.794 0.709,3.467 0.744,5.015 v 0 0.755 c -0.066,2.818 -0.876,5.196 -2.427,7.105 v 0 c -1.849,2.276 -4.815,3.952 -8.814,4.981 v 0 c -2.176,0.56 -4.24,0.83 -5.747,1.027 v 0 c -0.878,0.116 -1.572,0.206 -2.014,0.321 v 0 c -0.205,0.052 -0.369,0.203 -0.431,0.396 v 0 c -0.063,0.193 -0.016,0.402 0.123,0.548 v 0 c 1.214,1.274 3.544,11.969 1.624,18.098 v 0 c -0.614,1.956 -1.608,3.148 -2.957,3.542 v 0 c -3.329,0.412 -8.637,-2.978 -9.935,-5.16 v 0 c -0.135,-0.226 -0.422,-0.342 -0.681,-0.257 v 0 c -0.265,0.075 -0.449,0.311 -0.445,0.572 v 0 c 0.076,5.256 -3.949,9.568 -10.503,11.255 v 0 c -2.178,0.561 -4.61,0.841 -7.264,0.841 v 0 c -1.309,0 -2.672,-0.068 -4.084,-0.205 m 10.77,-67.65 c -4.854,1.249 -9.53,4.64 -13.657,7.633 v 0 c -2.17,1.574 -4.221,3.062 -5.865,3.878 v 0 c -6.048,3.006 -8.312,8.196 -8.413,12.053 v 0 c -0.072,2.719 0.842,5.021 2.493,6.411 v 0 c -2.014,1.013 -3.662,2.818 -4.63,5.115 v 0 c -1.314,3.116 -1.36,6.954 -0.132,11.1 v 0 c 2.694,9.133 12.454,14.889 20.702,15.854 v 0 c 3.86,0.452 7.312,0.296 10.262,-0.462 v 0 c 4.968,-1.278 8.37,-4.344 9.238,-8.193 v 0 c 2.071,1.832 5.867,3.701 8.549,3.332 v 0 c 0.033,-0.005 0.067,-0.013 0.099,-0.021 v 0 c 1.494,-0.411 2.609,-1.546 3.316,-3.373 v 0 c 1.777,-4.597 0.536,-12.42 -0.55,-15.257 v 0 c 0.31,-0.064 0.673,-0.132 1.069,-0.205 v 0 c 0.962,-0.18 2.16,-0.404 3.445,-0.735 v 0 c 7.389,-1.901 11.118,-5.928 11.137,-12 v 0 -0.093 c -0.005,-1.461 -0.223,-3.039 -0.655,-4.734 v 0 c -0.145,-0.576 -0.281,-1.144 -0.415,-1.699 v 0 c -1.338,-5.579 -2.493,-10.397 -10.914,-12.196 v 0 c -2.28,-0.488 -5.187,-0.284 -8.638,0.604 v 0 c -1.43,0.368 -2.662,0.781 -3.443,1.05 v 0 c 0.007,-3.217 -1.027,-5.453 -3.078,-6.65 v 0 c -1.918,-1.258 -4.04,-1.889 -6.336,-1.889 v 0 c -1.151,0 -2.348,0.159 -3.584,0.477" />
    </clipPath>
    <clipPath
   id="clipPath496"
   clipPathUnits="userSpaceOnUse">
      <path
   id="path494"
   d="m 226.071,212.491 c -4.188,-0.49 -8.454,-2.198 -12.011,-4.81 v 0 c -3.79,-2.781 -6.389,-6.268 -7.514,-10.083 v 0 c -1.806,-6.101 -0.648,-13.219 5.061,-15.02 v 0 c 0.276,-0.087 0.476,-0.322 0.507,-0.597 v 0 c 0.03,-0.275 -0.114,-0.536 -0.366,-0.665 v 0 c -1.848,-0.939 -2.952,-3.215 -2.88,-5.941 v 0 c 0.09,-3.454 2.138,-8.114 7.612,-10.833 v 0 c 1.756,-0.873 3.759,-2.326 6.078,-4.009 v 0 c 4.018,-2.913 8.571,-6.215 13.145,-7.392 v 0 c 3.327,-0.856 6.192,-0.452 8.755,1.234 v 0 c 0.011,0.007 0.022,0.015 0.033,0.021 v 0 c 1.731,1.002 2.543,3.058 2.412,6.107 v 0 c -0.015,0.364 -0.033,0.777 0.423,0.965 v 0 c 0.238,0.098 0.452,0.043 0.532,0.023 v 0 c 0.123,-0.033 0.301,-0.094 0.66,-0.219 v 0 c 0.768,-0.267 2.054,-0.715 3.625,-1.119 v 0 c 3.222,-0.829 5.896,-1.028 7.948,-0.589 v 0 c 7.56,1.615 8.523,5.633 9.857,11.193 v 0 c 0.135,0.561 0.272,1.133 0.419,1.715 v 0 c 2.047,8.033 -1.036,12.986 -9.422,15.144 v 0 c -1.235,0.318 -2.405,0.535 -3.344,0.711 v 0 c -0.895,0.167 -1.626,0.305 -2.074,0.461 v 0 c -0.214,0.073 -0.383,0.239 -0.454,0.445 v 0 c -0.072,0.206 -0.039,0.43 0.089,0.605 v 0 c 0.814,1.111 2.683,10.006 0.809,14.855 v 0 c -0.525,1.357 -1.293,2.193 -2.283,2.484 v 0 c -2.625,0.322 -7.094,-2.092 -8.226,-3.799 v 0 c -0.164,-0.248 -0.481,-0.531 -0.784,-0.452 v 0 c 0,0 -0.009,0.001 -0.014,0.003 v 0 c -0.306,0.085 -0.467,0.499 -0.48,0.8 v 0 c -0.163,4.011 -3.34,7.034 -8.405,8.337 v 0 c -1.728,0.445 -3.649,0.667 -5.744,0.667 v 0 c -1.26,0 -2.583,-0.08 -3.964,-0.242 m 9.173,-55.498 c -4.01,1.032 -7.835,3.778 -11.21,6.203 v 0 c -1.642,1.179 -3.194,2.294 -4.456,2.958 v 0 c -4.747,2.497 -6.598,6.676 -6.748,9.753 v 0 c -0.101,2.079 0.501,3.897 1.645,5.102 v 0 c -3.163,1.938 -5.386,6.522 -3.479,13.043 v 0 c 2.115,7.301 9.785,12.096 16.268,13.057 v 0 c 1.28,0.19 2.506,0.293 3.675,0.313 v 0 h 0.775 c 1.552,-0.026 2.994,-0.209 4.316,-0.549 v 0 c 3.572,-0.919 6.12,-2.982 7.092,-5.658 v 0 c 1.774,1.37 4.716,2.684 6.867,2.378 v 0 c 0.036,-0.006 0.072,-0.013 0.107,-0.023 v 0 c 1.178,-0.319 2.104,-1.13 2.753,-2.415 v 0 c 1.75,-3.462 1.046,-9.725 0.415,-12.19 v 0 c 0.307,-0.091 0.669,-0.188 1.06,-0.292 v 0 c 2.188,-0.584 5.495,-1.466 7.949,-3.601 v 0 c 2.997,-2.608 3.903,-6.364 2.696,-11.169 v 0 c -0.095,-0.384 -0.186,-0.766 -0.275,-1.142 v 0 c -1.129,-4.727 -2.104,-8.811 -8.946,-10.493 v 0 c -2.12,-0.519 -4.868,-0.33 -8.4,0.579 v 0 c -0.369,0.094 -0.701,0.185 -0.988,0.263 v 0 c -0.055,0.015 -0.108,0.029 -0.159,0.043 v 0 c -0.11,-1.355 -0.477,-3.821 -2.749,-5.1 v 0 c -1.572,-0.976 -3.3,-1.465 -5.164,-1.465 v 0 c -0.978,0 -1.994,0.135 -3.044,0.405" />
    </clipPath>
    <clipPath
   id="clipPath506"
   clipPathUnits="userSpaceOnUse">
      <path
   id="path504"
   d="m 227.565,205.521 c -5.965,-0.884 -13.014,-5.268 -14.945,-11.936 v 0 c -1.861,-6.36 0.587,-10.513 3.649,-11.681 v 0 c 0.298,-0.115 0.508,-0.377 0.542,-0.679 v 0 c 0.034,-0.302 -0.112,-0.592 -0.378,-0.751 v 0 c -1.303,-0.775 -2.022,-2.47 -1.922,-4.534 v 0 c 0.129,-2.633 1.733,-6.218 5.851,-8.384 v 0 c 1.37,-0.721 2.969,-1.87 4.662,-3.086 v 0 c 3.249,-2.334 6.931,-4.979 10.618,-5.928 v 0 c 2.611,-0.671 4.861,-0.386 6.88,0.873 v 0 c 0.011,0.007 0.024,0.014 0.034,0.02 v 0 c 1.774,0.989 1.922,3.183 1.992,4.238 v 0 c 0.036,0.528 0.066,0.982 0.569,1.191 v 0 c 0.317,0.131 0.623,0.064 1.094,-0.058 v 0 c 0.16,-0.041 0.352,-0.093 0.571,-0.153 v 0 c 0.28,-0.075 0.605,-0.165 0.965,-0.257 v 0 c 1.191,-0.306 4.819,-1.24 7.541,-0.572 v 0 c 5.881,1.446 6.67,4.754 7.763,9.332 v 0 c 0.091,0.38 0.183,0.766 0.28,1.158 v 0 c 2.426,9.654 -4.991,11.631 -9.421,12.813 v 0 c -0.868,0.232 -1.553,0.414 -2.031,0.632 v 0 c -0.419,0.192 -0.609,0.665 -0.424,1.063 v 0 c 0.533,1.156 1.61,8.248 -0.118,11.667 v 0 c -0.419,0.827 -0.945,1.325 -1.609,1.522 v 0 c -2.034,0.249 -5.628,-1.388 -6.614,-2.66 v 0 c -0.2,-0.259 -0.545,-0.578 -0.876,-0.492 v 0 c 0,0 -0.007,0 -0.01,0.001 v 0 c -0.334,0.09 -0.348,0.556 -0.392,0.883 v 0 c -0.363,2.713 -2.693,4.677 -6.204,5.58 v 0 c -1.286,0.331 -2.709,0.497 -4.256,0.497 v 0 c -1.198,0 -2.471,-0.1 -3.811,-0.299 m 7.547,-43.347 c -3.191,0.82 -6.316,3.037 -8.827,4.819 v 0 c -1.091,0.773 -2.12,1.504 -2.984,2.001 v 0 c -2.896,1.665 -4.79,4.423 -5.065,7.375 v 0 c -0.138,1.494 0.182,2.862 0.874,3.863 v 0 c -1.585,1.254 -2.76,3.422 -2.786,6.291 v 0 0.201 c 0.009,1.038 0.168,2.165 0.51,3.372 v 0 c 1.389,4.903 6.244,9.121 11.806,10.258 v 0 c 2.769,0.566 5.239,0.577 7.341,0.037 v 0 c 2.189,-0.563 3.886,-1.719 4.833,-3.254 v 0 c 1.378,0.892 3.511,1.776 5.26,1.515 v 0 c 0.036,-0.007 0.074,-0.012 0.108,-0.023 v 0 c 4.021,-1.056 3.767,-8.04 3.536,-10.587 v 0 c 0.282,-0.125 0.62,-0.26 0.987,-0.406 v 0 c 2.829,-1.127 7.748,-3.087 7.846,-8.782 v 0 -0.347 c -0.014,-0.853 -0.134,-1.786 -0.381,-2.809 v 0 l -0.139,-0.581 c -0.881,-3.707 -1.715,-7.208 -6.948,-8.792 v 0 c -2.257,-0.681 -4.954,-0.224 -6.565,0.049 v 0 c -0.166,0.029 -0.351,0.059 -0.517,0.086 v 0 c -0.214,-0.933 -0.673,-2.682 -2.395,-3.586 v 0 c -1.221,-0.69 -2.552,-1.035 -3.977,-1.035 v 0 c -0.809,0 -1.649,0.112 -2.517,0.335" />
    </clipPath>
    <clipPath
   id="clipPath516"
   clipPathUnits="userSpaceOnUse">
      <path
   id="path514"
   d="m 229.089,198.559 c -4.83,-0.987 -9.202,-4.766 -10.397,-8.985 v 0 c -1.233,-4.353 0.264,-7.343 2.295,-8.374 v 0 c 0.288,-0.147 0.483,-0.419 0.52,-0.726 v 0 c 0.038,-0.307 -0.088,-0.607 -0.335,-0.799 v 0 c -0.768,-0.598 -1.15,-1.791 -1.019,-3.191 v 0 c 0.219,-2.356 1.755,-4.571 4.109,-5.925 v 0 c 0.947,-0.545 2.014,-1.301 3.145,-2.104 v 0 c 2.499,-1.773 5.332,-3.783 8.161,-4.511 v 0 c 1.907,-0.491 3.555,-0.32 5.037,0.522 v 0 c 0.01,0.005 0.021,0.011 0.031,0.016 v 0 c 1.064,0.554 1.333,1.741 1.51,2.526 v 0 c 0.125,0.554 0.233,1.033 0.763,1.252 v 0 c 0.415,0.171 0.879,0.093 1.897,-0.08 v 0 c 1.438,-0.243 3.842,-0.65 5.652,-0.104 v 0 c 4.218,1.276 4.838,3.883 5.697,7.491 v 0 l 0.141,0.586 c 1.602,6.647 -3.149,8.54 -6.292,9.792 v 0 c -0.722,0.287 -1.345,0.536 -1.805,0.812 v 0 c -0.322,0.194 -0.502,0.545 -0.46,0.9 v 0 c 0.386,3.226 0.186,8.54 -1.971,9.189 v 0 c -1.383,0.168 -4.07,-0.632 -4.914,-1.483 v 0 c -0.234,-0.235 -0.49,-0.622 -0.826,-0.541 v 0 c -0.336,0.076 -0.262,0.617 -0.364,0.932 v 0 c -0.489,1.503 -2.074,2.335 -4.139,2.866 v 0 c -0.863,0.222 -1.809,0.333 -2.832,0.333 v 0 c -1.113,0 -2.317,-0.131 -3.604,-0.394 m 5.845,-31.201 c -2.504,0.644 -4.862,2.32 -6.757,3.666 v 0 c -0.421,0.3 -0.821,0.584 -1.194,0.837 v 0 c -2.98,2.014 -3.995,5.411 -3.156,7.599 v 0 c -1.162,1.371 -1.954,3.679 -1.157,6.672 v 0 c 0.89,3.343 3.741,6.264 7.263,7.44 v 0 c 2.274,0.76 4.422,0.918 6.21,0.458 v 0 c 0.859,-0.22 1.625,-0.579 2.258,-1.052 v 0 c 0.986,0.467 2.464,0.945 3.769,0.73 v 0 c 0.03,-0.005 0.06,-0.011 0.088,-0.018 v 0 c 0,0 0.028,-0.007 0.031,-0.008 v 0 c 2.61,-0.672 3.282,-3.917 3.685,-5.856 v 0 c 0.05,-0.242 0.099,-0.476 0.144,-0.666 v 0 c 0.222,-0.161 0.478,-0.332 0.745,-0.51 v 0 c 2.136,-1.425 5.712,-3.809 4.511,-9.15 v 0 c -0.584,-2.589 -1.243,-5.522 -4.886,-7.089 v 0 c -1.344,-0.576 -2.855,-0.599 -3.959,-0.617 v 0 c -0.254,-0.005 -0.575,-0.009 -0.784,-0.025 v 0 c -0.028,-0.049 -0.058,-0.101 -0.083,-0.146 v 0 c -0.309,-0.545 -0.827,-1.457 -1.958,-1.955 v 0 c -0.846,-0.387 -1.758,-0.582 -2.725,-0.582 v 0 c -0.658,0 -1.341,0.091 -2.045,0.272" />
    </clipPath>
    <clipPath
   id="clipPath526"
   clipPathUnits="userSpaceOnUse">
      <path
   id="path524"
   d="m 230.695,191.622 c -2.834,-0.948 -5.216,-3.378 -5.927,-6.047 v 0 c -0.686,-2.579 0.101,-4.369 1.067,-5.184 v 0 c 0.413,-0.35 0.498,-0.931 0.198,-1.358 v 0 c -0.37,-0.523 -0.424,-1.485 -0.137,-2.447 v 0 c 0.359,-1.205 1.178,-2.288 2.306,-3.051 v 0 c 0.387,-0.262 0.802,-0.556 1.239,-0.866 v 0 c 1.741,-1.239 3.91,-2.78 6.006,-3.319 v 0 c 1.239,-0.319 2.317,-0.256 3.295,0.191 v 0 c 0.515,0.226 0.766,0.671 1.011,1.101 v 0 c 0.226,0.398 0.46,0.812 0.948,1.014 v 0 c 0.438,0.181 0.982,0.19 1.736,0.202 v 0 c 0.969,0.016 2.175,0.035 3.121,0.441 v 0 c 2.498,1.073 3.064,2.863 3.699,5.684 v 0 c 0.896,3.985 -1.493,5.579 -3.602,6.985 v 0 c -0.425,0.283 -0.826,0.552 -1.17,0.825 v 0 c -0.166,0.132 -0.289,0.307 -0.353,0.503 v 0 c -0.1,0.306 -0.183,0.712 -0.281,1.181 v 0 c -0.279,1.347 -0.797,3.843 -2.043,4.204 v 0 c -0.858,0.115 -2.242,-0.407 -2.928,-0.838 v 0 c -0.445,-0.279 -1.044,-0.2 -1.41,0.188 v 0 c -0.301,0.321 -0.866,0.756 -1.839,1.006 v 0 c -0.486,0.126 -1.016,0.188 -1.582,0.188 v 0 c -1.019,0 -2.153,-0.203 -3.354,-0.603 m 3.67,-19.046 c -1.476,0.379 -2.808,1.173 -3.852,2.296 v 0 c -1.396,1.502 -2.115,3.422 -2.167,5.367 v 0 0.456 c 0.057,2.131 0.912,4.255 2.546,5.854 v 0 c 2.091,2.044 5,2.838 7.782,2.122 v 0 c 1.475,-0.379 2.807,-1.174 3.851,-2.295 v 0 c 1.387,-1.493 2.105,-3.396 2.166,-5.327 v 0 -0.54 c -0.067,-2.116 -0.921,-4.223 -2.545,-5.812 v 0 c -1.584,-1.549 -3.638,-2.379 -5.75,-2.379 v 0 c -0.675,0 -1.356,0.084 -2.031,0.258" />
    </clipPath>
    <clipPath
   id="clipPath536"
   clipPathUnits="userSpaceOnUse">
      <path
   id="path534"
   d="m 232.636,184.926 c -2.397,-2.344 -2.55,-6.182 -0.342,-8.558 v 0 c 0.719,-0.774 1.632,-1.32 2.64,-1.579 v 0 c 1.935,-0.498 3.98,0.075 5.469,1.532 v 0 c 2.396,2.343 2.549,6.182 0.342,8.557 v 0 c -0.72,0.774 -1.633,1.32 -2.641,1.58 v 0 c -0.459,0.117 -0.925,0.176 -1.388,0.176 v 0 c -1.487,0 -2.945,-0.597 -4.08,-1.708" />
    </clipPath>
  <clipPath
   clipPathUnits="userSpaceOnUse"
   id="clipPath454-7"><path
     d="M 0,240.94 H 311.449 V 0 H 0 Z"
     id="path452-5" /></clipPath></defs>
  <g
   transform="matrix(1.3333333,0,0,-1.3333333,-265.92756,292.93653)"
   id="g10">
    
    
  <g
   style="display:inline;stroke-width:0.497404"
   transform="matrix(1.5078282,0,0,-1.5078282,-148.54526,566.66177)"
   id="g1343"><path
     style="fill:#7bc5be;fill-opacity:1;stroke-width:0.497404"
     id="path1331"
     d="m 247.47066,230.24 c -6.224,0.60533 -13.948,4.96267 -16.00267,11.84667 v 0 c -1.06133,3.55333 -0.872,6.816 0.52934,9.188 v 0 c 0.892,1.51066 2.236,2.576 3.78133,3 v 0 c 0.16,0.0453 0.27867,0.17866 0.29467,0.33599 v 0 c 0.0187,0.15734 -0.068,0.30667 -0.216,0.37467 v 0 c -1.61334,0.73733 -2.596,2.61333 -2.56667,4.89333 v 0 c 0.0373,2.84 1.69333,6.64667 6.22667,8.81067 v 0 c 1.412,0.67467 3.05066,1.87067 4.948,3.256 v 0 c 3.18,2.32267 6.784,4.956 10.416,5.88933 v 0 c 0.688,0.17734 1.352,0.28534 1.99333,0.32667 v 0 h 1.11333 c 1.42267,-0.0933 2.73334,-0.556 3.956,-1.388 v 0 c 0.008,-0.004 0.0133,-0.009 0.0213,-0.012 v 0 c 2.532,-1.50533 1.83733,-5.33467 1.83066,-5.37333 v 0 c -0.0267,-0.14 0.0293,-0.28 0.148,-0.364 v 0 c 0.116,-0.084 0.27334,-0.0987 0.40934,-0.0373 v 0 c 0.0173,0.008 1.77733,0.804 4.01733,1.38 v 0 c 2.32533,0.59734 4.288,0.74934 5.83467,0.45067 v 0 c 6.14266,-1.184 6.89866,-4.32933 7.944,-8.68 v 0 c 0.11733,-0.48667 0.236,-0.98267 0.36666,-1.49067 v 0 c 0.304,-1.184 0.468,-2.28933 0.49334,-3.312 v 0 -0.52933 c -0.0453,-1.86533 -0.584,-3.43867 -1.61067,-4.70266 v 0 c -1.228,-1.50934 -3.19467,-2.624 -5.84933,-3.30534 v 0 c -1.44267,-0.372 -2.81334,-0.552 -3.81334,-0.68133 v 0 c -0.58266,-0.0773 -1.04266,-0.13733 -1.336,-0.212 v 0 c -0.136,-0.0347 -0.244,-0.136 -0.28666,-0.264 v 0 c -0.0413,-0.12933 -0.0107,-0.26667 0.0827,-0.364 v 0 c 0.80534,-0.84533 2.352,-7.94133 1.07734,-12.008 v 0 c -0.40667,-1.29867 -1.06667,-2.08933 -1.96267,-2.35067 v 0 c -2.20933,-0.27466 -5.73067,1.97467 -6.592,3.42267 v 0 c -0.0907,0.15067 -0.28,0.228 -0.45333,0.17067 v 0 c -0.176,-0.0493 -0.29734,-0.20667 -0.29467,-0.38 v 0 c 0.0507,-3.488 -2.62,-6.34934 -6.968,-7.468 v 0 c -1.448,-0.372 -3.06,-0.55734 -4.82133,-0.55734 v 0 c -0.868,0 -1.77334,0.044 -2.71067,0.13467 m 7.14667,44.892 c -3.22,-0.828 -6.32267,-3.07867 -9.06134,-5.064 v 0 c -1.44133,-1.04534 -2.80133,-2.032 -3.89333,-2.57467 v 0 c -4.01333,-1.99467 -5.516,-5.43867 -5.58133,-7.99733 v 0 c -0.048,-1.804 0.55733,-3.332 1.65333,-4.25467 v 0 c -1.336,-0.672 -2.43067,-1.86933 -3.072,-3.39333 v 0 c -0.872,-2.06933 -0.90267,-4.616 -0.088,-7.36533 v 0 c 1.788,-6.06134 8.264,-9.88134 13.73733,-10.52267 v 0 c 2.56134,-0.3 4.85334,-0.19467 6.81067,0.308 v 0 c 3.296,0.848 5.55333,2.88267 6.12933,5.43733 v 0 c 1.37334,-1.21733 3.89334,-2.45733 5.67334,-2.212 v 0 c 0.0213,0.004 0.044,0.008 0.0653,0.0147 v 0 c 0.992,0.272 1.732,1.024 2.2,2.23733 v 0 c 1.18,3.05067 0.35733,8.24134 -0.364,10.12534 v 0 c 0.20667,0.0413 0.44667,0.0853 0.70933,0.13466 v 0 c 0.63734,0.12 1.43334,0.268 2.28534,0.488 v 0 c 4.904,1.26134 7.37866,3.93467 7.39066,7.964 v 0 0.0613 c -0.003,0.96934 -0.14666,2.016 -0.43466,3.14134 v 0 c -0.096,0.38133 -0.18667,0.75866 -0.276,1.12666 v 0 c -0.88667,3.70267 -1.65334,6.89867 -7.24134,8.09334 v 0 c -1.51333,0.324 -3.44133,0.188 -5.732,-0.40134 v 0 c -0.94933,-0.244 -1.76666,-0.51733 -2.284,-0.696 v 0 c 0.004,2.13467 -0.68266,3.61867 -2.044,4.412 v 0 c -1.27333,0.836 -2.67866,1.25467 -4.20266,1.25467 v 0 c -0.76534,0 -1.56,-0.10533 -2.38,-0.31733" /><path
     style="fill:#7bc5be;fill-opacity:1;stroke-width:0.497404"
     id="path1333"
     d="m 248.45333,234.868 c -2.77867,0.32533 -5.60934,1.45733 -7.97067,3.19067 v 0 c -2.51467,1.84533 -4.23867,4.16 -4.98667,6.692 v 0 c -1.19733,4.048 -0.42933,8.77066 3.35867,9.96666 v 0 c 0.184,0.0573 0.316,0.21333 0.336,0.396 v 0 c 0.0213,0.18133 -0.0733,0.356 -0.24133,0.44133 v 0 c -1.22667,0.62267 -1.95867,2.13334 -1.912,3.94134 v 0 c 0.06,2.292 1.42,5.38533 5.05066,7.18933 v 0 c 1.16667,0.58 2.496,1.544 4.03467,2.66133 v 0 c 2.66667,1.93334 5.68667,4.12267 8.72133,4.904 v 0 c 2.20934,0.568 4.10934,0.30134 5.81067,-0.81866 v 0 c 0.007,-0.005 0.0147,-0.009 0.0213,-0.0133 v 0 c 1.14934,-0.66533 1.688,-2.02933 1.60134,-4.05333 v 0 c -0.0107,-0.24133 -0.0227,-0.51467 0.28,-0.64 v 0 c 0.15866,-0.0653 0.3,-0.028 0.35333,-0.0147 v 0 c 0.0813,0.0213 0.2,0.0613 0.43733,0.144 v 0 c 0.51067,0.17867 1.364,0.47467 2.40667,0.744 v 0 c 2.13867,0.54934 3.912,0.68134 5.27333,0.39067 v 0 c 5.016,-1.07333 5.656,-3.73733 6.54134,-7.428 v 0 c 0.0893,-0.372 0.18,-0.752 0.27733,-1.13867 v 0 c 1.35867,-5.32933 -0.68667,-8.61599 -6.252,-10.04799 v 0 c -0.81867,-0.21067 -1.59467,-0.356 -2.21867,-0.472 v 0 c -0.59333,-0.11067 -1.07866,-0.20267 -1.376,-0.30667 v 0 c -0.14266,-0.0493 -0.25466,-0.15867 -0.30133,-0.29467 v 0 c -0.048,-0.13733 -0.0267,-0.28533 0.0587,-0.40266 v 0 c 0.54,-0.736 1.78133,-6.63867 0.53733,-9.856 v 0 c -0.348,-0.9 -0.85733,-1.456 -1.516,-1.64934 v 0 c -1.74,-0.21333 -4.70667,1.388 -5.45867,2.52134 v 0 c -0.10933,0.164 -0.31866,0.352 -0.51866,0.3 v 0 c 0,0 -0.007,-10e-4 -0.0107,-0.003 v 0 c -0.20267,-0.056 -0.30933,-0.32933 -0.31733,-0.53067 v 0 c -0.10934,-2.66133 -2.21734,-4.668 -5.57734,-5.532 v 0 c -1.148,-0.29466 -2.42266,-0.44266 -3.812,-0.44266 v 0 c -0.836,0 -1.71466,0.0547 -2.63066,0.16133 m 6.08666,36.82666 c -2.66133,-0.684 -5.19866,-2.50666 -7.43866,-4.116 v 0 c -1.08934,-0.78266 -2.11867,-1.52133 -2.956,-1.96266 v 0 c -3.15067,-1.65734 -4.38,-4.42934 -4.47734,-6.472 v 0 c -0.068,-1.38 0.33067,-2.58667 1.09067,-3.38534 v 0 c -2.09867,-1.28666 -3.57333,-4.32799 -2.30933,-8.65599 v 0 c 1.404,-4.844 6.49333,-8.02534 10.796,-8.664 v 0 c 0.84933,-0.12534 1.66266,-0.196 2.43733,-0.20667 v 0 h 0.51467 c 1.03066,0.016 1.988,0.13733 2.86533,0.36267 v 0 c 2.36933,0.61066 4.06,1.97866 4.70533,3.75466 v 0 c 1.17734,-0.908 3.13067,-1.78 4.55734,-1.57733 v 0 c 0.024,0.003 0.0467,0.008 0.0707,0.0147 v 0 c 0.78134,0.212 1.396,0.75066 1.82667,1.60266 v 0 c 1.16133,2.29867 0.69333,6.45334 0.276,8.09067 v 0 c 0.204,0.06 0.444,0.12267 0.70267,0.19333 v 0 c 1.452,0.38534 3.64666,0.972 5.276,2.38934 v 0 c 1.988,1.72933 2.58933,4.22399 1.788,7.41066 v 0 c -0.0627,0.25467 -0.12267,0.50933 -0.18267,0.75867 v 0 c -0.74933,3.136 -1.396,5.84666 -5.93733,6.96266 v 0 c -1.40534,0.34534 -3.228,0.21867 -5.57334,-0.384 v 0 c -0.24533,-0.0627 -0.46533,-0.12266 -0.65466,-0.17466 v 0 c -0.036,-0.009 -0.072,-0.0187 -0.10667,-0.028 v 0 c -0.0733,0.89866 -0.316,2.53466 -1.824,3.38266 v 0 c -1.04267,0.64934 -2.18933,0.97334 -3.42533,0.97334 v 0 c -0.65067,0 -1.324,-0.0907 -2.02134,-0.26934" /><path
     style="fill:#7bc5be;fill-opacity:1;stroke-width:0.497404"
     id="path1335"
     d="m 249.44399,239.492 c -3.95733,0.58667 -8.63466,3.496 -9.91733,7.92 v 0 c -1.23467,4.22133 0.39067,6.97733 2.42267,7.752 v 0 c 0.19733,0.076 0.336,0.25066 0.36,0.45066 v 0 c 0.0227,0.2 -0.0747,0.39334 -0.25067,0.49734 v 0 c -0.86533,0.516 -1.34267,1.64133 -1.276,3.01066 v 0 c 0.0853,1.74667 1.14933,4.12667 3.88133,5.564 v 0 c 0.90934,0.47734 1.972,1.24 3.09467,2.04667 v 0 c 2.156,1.54933 4.59867,3.304 7.04533,3.93467 v 0 c 1.73334,0.444 3.22534,0.25466 4.56534,-0.58 v 0 c 0.008,-0.005 0.016,-0.009 0.024,-0.0133 v 0 c 1.176,-0.656 1.27466,-2.112 1.32133,-2.81333 v 0 c 0.024,-0.34933 0.0427,-0.65067 0.376,-0.78933 v 0 c 0.212,-0.088 0.41467,-0.0413 0.72667,0.0387 v 0 c 0.10666,0.028 0.23333,0.0613 0.37866,0.1 v 0 c 0.18667,0.0507 0.40134,0.10934 0.64134,0.172 v 0 c 0.79066,0.20267 3.19733,0.82267 5.004,0.38 v 0 c 3.90266,-0.96 4.42666,-3.15466 5.152,-6.19333 v 0 c 0.06,-0.252 0.12,-0.508 0.18533,-0.768 v 0 c 1.60933,-6.40666 -3.312,-7.71866 -6.252,-8.504 v 0 c -0.576,-0.15333 -1.03067,-0.27333 -1.348,-0.41866 v 0 c -0.27733,-0.12667 -0.404,-0.44 -0.28133,-0.704 v 0 c 0.35333,-0.768 1.06933,-5.47467 -0.0787,-7.744 v 0 c -0.27733,-0.548 -0.62533,-0.87867 -1.06667,-1.00934 v 0 c -1.34933,-0.164 -3.73466,0.92134 -4.38933,1.76534 v 0 c -0.13333,0.172 -0.36267,0.384 -0.58133,0.32666 v 0 c 0,0 -0.004,-0.001 -0.007,-0.001 v 0 c -0.22133,-0.0587 -0.23067,-0.368 -0.26,-0.58533 v 0 c -0.24133,-1.8 -1.78667,-3.104 -4.11733,-3.704 v 0 c -0.852,-0.21867 -1.796,-0.328 -2.82267,-0.328 v 0 c -0.796,0 -1.64,0.0653 -2.53067,0.19733 m 5.00934,28.76533 c -2.11867,-0.544 -4.192,-2.016 -5.85734,-3.19867 v 0 c -0.724,-0.512 -1.408,-0.99733 -1.98,-1.32666 v 0 c -1.92266,-1.10534 -3.17866,-2.936 -3.36133,-4.896 v 0 c -0.0933,-0.98934 0.12,-1.89734 0.58,-2.56267 v 0 c -1.052,-0.832 -1.832,-2.27066 -1.84933,-4.17333 v 0 -0.13333 c 0.007,-0.68934 0.11066,-1.43734 0.33866,-2.23867 v 0 c 0.92134,-3.252 4.14267,-6.052 7.83334,-6.80533 v 0 c 1.83733,-0.376 3.47733,-0.384 4.872,-0.0253 v 0 c 1.452,0.37334 2.58,1.14 3.20666,2.15867 v 0 c 0.91467,-0.592 2.32934,-1.17867 3.49067,-1.00533 v 0 c 0.024,0.004 0.0493,0.008 0.072,0.0147 v 0 c 2.668,0.70134 2.5,5.33734 2.34667,7.02667 v 0 c 0.18666,0.0827 0.412,0.17067 0.65466,0.268 v 0 c 1.87734,0.748 5.14134,2.04933 5.20667,5.828 v 0 0.23066 c -0.0107,0.56534 -0.0893,1.18534 -0.25333,1.864 v 0 l -0.092,0.38534 c -0.58534,2.46 -1.13734,4.78266 -4.612,5.83466 v 0 c -1.49734,0.45067 -3.28667,0.148 -4.35467,-0.032 v 0 c -0.11067,-0.02 -0.232,-0.04 -0.344,-0.0587 v 0 c -0.14133,0.62 -0.44533,1.78 -1.588,2.38 v 0 c -0.81067,0.45866 -1.69467,0.688 -2.64133,0.688 v 0 c -0.53734,0 -1.09334,-0.0747 -1.668,-0.22267" /><path
     style="fill:#7bc5be;fill-opacity:1;stroke-width:0.497404"
     id="path1337"
     d="m 250.45599,244.112 c -3.204,0.656 -6.10666,3.16267 -6.89866,5.96267 v 0 c -0.81867,2.88933 0.17466,4.87199 1.52266,5.55599 v 0 c 0.19067,0.0973 0.32,0.27867 0.34534,0.48267 v 0 c 0.0253,0.20267 -0.0587,0.40267 -0.224,0.53067 v 0 c -0.50934,0.396 -0.76134,1.188 -0.676,2.11733 v 0 c 0.14666,1.56267 1.16533,3.03333 2.728,3.932 v 0 c 0.628,0.36133 1.336,0.86267 2.08666,1.396 v 0 c 1.65734,1.176 3.53867,2.51067 5.41467,2.992 v 0 c 1.26667,0.32667 2.36,0.21333 3.344,-0.34533 v 0 c 0.005,-0.004 0.0133,-0.007 0.02,-0.0107 v 0 c 0.70533,-0.36667 0.884,-1.156 1.00267,-1.676 v 0 c 0.0827,-0.368 0.15466,-0.68533 0.50533,-0.83067 v 0 c 0.27467,-0.11466 0.584,-0.0627 1.25867,0.0533 v 0 c 0.95333,0.16 2.54933,0.43066 3.75066,0.068 v 0 c 2.8,-0.84667 3.21067,-2.57734 3.78,-4.97067 v 0 l 0.0933,-0.38933 c 1.064,-4.41067 -2.08934,-5.66533 -4.17467,-6.49733 v 0 c -0.47867,-0.19067 -0.89333,-0.35467 -1.19733,-0.53867 v 0 c -0.21334,-0.12933 -0.33334,-0.36133 -0.30534,-0.59733 v 0 c 0.256,-2.14 0.12267,-5.66667 -1.308,-6.09734 v 0 c -0.91733,-0.112 -2.70133,0.42 -3.26133,0.984 v 0 c -0.15467,0.156 -0.32533,0.412 -0.54667,0.35867 v 0 c -0.22533,-0.0493 -0.17466,-0.40933 -0.24266,-0.61867 v 0 c -0.32534,-0.99733 -1.376,-1.54933 -2.74534,-1.90133 v 0 c -0.57466,-0.148 -1.20133,-0.22133 -1.88133,-0.22133 v 0 c -0.73733,0 -1.53733,0.088 -2.39067,0.26133 m 3.87867,20.70533 c -1.66267,-0.428 -3.22667,-1.54 -4.484,-2.43333 v 0 c -0.28,-0.2 -0.54533,-0.388 -0.79333,-0.556 v 0 c -1.976,-1.336 -2.65067,-3.59067 -2.09334,-5.04134 v 0 c -0.77066,-0.91066 -1.296,-2.44133 -0.76666,-4.42799 v 0 c 0.58933,-2.21867 2.48133,-4.156 4.81866,-4.936 v 0 c 1.508,-0.50534 2.93334,-0.61067 4.12134,-0.30534 v 0 c 0.56933,0.14667 1.07866,0.38534 1.49866,0.69867 v 0 c 0.65334,-0.30933 1.63467,-0.628 2.5,-0.484 v 0 c 0.02,0.003 0.04,0.007 0.0587,0.012 v 0 c 0,0 0.0187,0.004 0.0213,0.005 v 0 c 1.73067,0.44534 2.17734,2.59867 2.444,3.88534 v 0 c 0.0333,0.16133 0.0653,0.316 0.096,0.44266 v 0 c 0.148,0.10534 0.31734,0.22 0.49467,0.33734 v 0 c 1.41867,0.94533 3.79067,2.528 2.992,6.07199 v 0 c -0.38533,1.71867 -0.824,3.66534 -3.24133,4.704 v 0 c -0.892,0.38267 -1.89467,0.39867 -2.62667,0.40934 v 0 c -0.16933,0.003 -0.38133,0.007 -0.52,0.0173 v 0 c -0.02,0.032 -0.0387,0.0667 -0.056,0.096 v 0 c -0.20533,0.36133 -0.548,0.968 -1.29867,1.29733 v 0 c -0.56266,0.25734 -1.16666,0.38667 -1.80933,0.38667 v 0 c -0.43467,0 -0.888,-0.06 -1.356,-0.18" /><path
     style="fill:#7bc5be;fill-opacity:1;stroke-width:0.497404"
     id="path1339"
     d="m 251.52266,248.716 c -1.88133,0.628 -3.46267,2.24133 -3.93333,4.012 v 0 c -0.456,1.712 0.0667,2.9 0.708,3.44133 v 0 c 0.27466,0.23067 0.32933,0.616 0.13066,0.9 v 0 c -0.24533,0.348 -0.28133,0.98667 -0.0907,1.624 v 0 c 0.23733,0.8 0.78133,1.51867 1.53066,2.02533 v 0 c 0.256,0.17334 0.53067,0.368 0.82134,0.57467 v 0 c 1.156,0.82133 2.59466,1.844 3.98533,2.20133 v 0 c 0.824,0.212 1.53867,0.17067 2.18667,-0.12666 v 0 c 0.34133,-0.15067 0.508,-0.444 0.67066,-0.72934 v 0 c 0.14934,-0.26533 0.30534,-0.53866 0.62934,-0.67333 v 0 c 0.29066,-0.12 0.652,-0.12667 1.152,-0.13467 v 0 c 0.64266,-0.009 1.44266,-0.0227 2.07066,-0.292 v 0 c 1.65867,-0.712 2.03334,-1.9 2.45467,-3.772 v 0 c 0.59467,-2.644 -0.99067,-3.70266 -2.38933,-4.63599 v 0 c -0.28267,-0.18667 -0.54934,-0.36534 -0.77734,-0.548 v 0 c -0.11066,-0.0867 -0.192,-0.20267 -0.23333,-0.33334 v 0 c -0.0667,-0.20266 -0.12267,-0.472 -0.18667,-0.78266 v 0 c -0.18533,-0.89467 -0.52933,-2.55067 -1.356,-2.79067 v 0 c -0.56933,-0.076 -1.48933,0.27067 -1.944,0.55733 v 0 c -0.29333,0.184 -0.692,0.132 -0.93466,-0.12533 v 0 c -0.2,-0.21333 -0.57467,-0.50267 -1.22,-0.668 v 0 c -0.32267,-0.0827 -0.67334,-0.124 -1.04934,-0.124 v 0 c -0.676,0 -1.42933,0.13467 -2.22533,0.4 m 2.43467,12.63866 c -0.98,-0.252 -1.864,-0.77866 -2.556,-1.52266 v 0 c -0.928,-0.99734 -1.404,-2.272 -1.43734,-3.564 v 0 -0.30134 c 0.0373,-1.41466 0.60267,-2.82399 1.68934,-3.88533 v 0 c 1.38666,-1.356 3.316,-1.88266 5.16266,-1.40666 v 0 c 0.97867,0.252 1.86267,0.77866 2.556,1.52266 v 0 c 0.92,0.98934 1.396,2.25334 1.43734,3.53467 v 0 0.35733 c -0.044,1.40533 -0.61067,2.804 -1.68934,3.85733 v 0 c -1.052,1.028 -2.41333,1.57867 -3.81466,1.57867 v 0 c -0.448,0 -0.9,-0.056 -1.348,-0.17067" /><path
     style="fill:#7bc5be;fill-opacity:1;stroke-width:0.497404"
     id="path1341"
     d="m 252.80933,253.16 c -1.59067,1.55466 -1.69067,4.10266 -0.22667,5.67733 v 0 c 0.47733,0.51467 1.08267,0.876 1.752,1.048 v 0 c 1.284,0.33067 2.64,-0.0493 3.62933,-1.016 v 0 c 1.58934,-1.556 1.692,-4.10267 0.22534,-5.67866 v 0 c -0.476,-0.51334 -1.08267,-0.876 -1.75067,-1.048 v 0 c -0.30533,-0.0773 -0.61467,-0.116 -0.92133,-0.116 v 0 c -0.98667,0 -1.95467,0.39466 -2.708,1.13333" /></g></g>
</svg>
